<svg width="48" height="49" viewBox="0 0 48 49" fill="none" xmlns="http://www.w3.org/2000/svg">
<path fill-rule="evenodd" clip-rule="evenodd" d="M9.86464 20.4773C9.03072 20.5925 8.31762 20.9995 7.62433 21.4789C6.07929 22.6774 4.77393 20.6668 5.96044 19.7062C8.33347 17.9948 10.7897 17.5079 13.1271 18.9072C13.3073 19.0298 13.6579 19.2286 13.8283 19.368L11.1046 20.6018C10.6411 20.4847 10.239 20.4439 9.86464 20.4773Z" fill="url(#paint0_linear_1777_15142)"/>
<path fill-rule="evenodd" clip-rule="evenodd" d="M13.7949 19.3456C14.8547 18.9944 15.7659 18.6265 16.8811 18.3348C16.7582 18.1861 16.6335 18.0374 16.5106 17.8888C16.3977 17.7439 16.4908 17.6993 16.7067 17.7327C17.8794 17.9111 19.054 18.0876 20.2267 18.266C20.5317 18.3255 20.5911 18.4332 20.3574 18.6897C19.5512 19.55 18.743 20.4103 17.9368 21.2707C17.8398 21.3747 17.7447 21.3561 17.7387 21.135C17.7209 20.9529 17.7031 20.7708 17.6853 20.5887C16.885 20.7764 15.3004 21.3078 15.3043 21.306L13.07 22.2555C13.0719 22.2555 11.6358 22.9746 10.9366 23.3555C8.27438 24.7956 7.36716 27.1741 9.1499 28.0994C10.7207 28.9523 13.2581 27.9805 13.6761 25.1319C13.783 24.3645 13.6464 23.153 13.07 22.2555L15.3043 21.306C15.9045 22.4673 16.263 23.9892 16.0966 25.5909C15.5381 30.0877 10.8574 31.7117 7.84058 30.1341C4.63957 28.4804 5.07337 24.5503 8.36946 22.1403C9.20537 21.6014 10.0532 21.1071 10.9148 20.6575L13.7949 19.3456Z" fill="url(#paint1_linear_1777_15142)"/>
<path fill-rule="evenodd" clip-rule="evenodd" d="M19.4405 23.5074C18.9733 23.5074 18.2265 23.791 18.1878 24.2418C18.1633 24.5275 18.4836 24.6927 18.7448 24.5826C18.9467 24.4969 19.1222 24.2663 19.4038 24.2663C19.7302 24.2663 19.9873 24.454 20.0016 24.7539C20.0077 24.8702 19.9322 24.8376 19.822 24.8376C19.62 24.8376 19.2365 24.8315 19.0712 24.856C17.4778 25.0906 17.8328 26.8452 19.0222 26.8452C19.4895 26.8452 19.9138 26.7922 20.3484 26.7901C20.9013 26.786 20.8911 26.4698 20.8911 26.0617V25.0804C20.8911 24.5254 20.8177 24.2418 20.5218 23.944C20.2933 23.7114 19.9036 23.5074 19.4405 23.5074ZM19.5323 26.1658C19.2303 26.1658 18.8794 26.1209 18.8815 25.8026C18.8815 25.4905 19.2405 25.4578 19.5507 25.4578C20.1015 25.4578 20.0077 25.3109 20.0036 26.0903C19.8934 26.1842 19.6996 26.1658 19.5323 26.1658ZM28.287 24.8213C28.287 24.4928 28.5502 24.248 28.8909 24.2602C29.3438 24.2745 29.5785 24.7907 29.4173 24.8213H28.287ZM28.289 25.4925C28.6461 25.4925 29.0052 25.4925 29.3622 25.4925C29.6988 25.4925 30.0824 25.5456 30.2517 25.3313C30.4088 25.1355 30.3599 24.6621 30.2721 24.4214C29.9008 23.389 28.3115 23.132 27.6157 24.148C27.4525 24.3867 27.4015 24.6234 27.3995 24.9865C27.3974 25.3558 27.375 25.668 27.4954 25.9638C27.8137 26.7575 28.8419 27.0247 29.6703 26.7105C30.6129 26.3555 30.1742 25.5619 29.6029 25.8618C29.3744 25.9822 29.1337 26.1372 28.7726 26.0679C28.489 26.0128 28.287 25.8149 28.289 25.4925ZM22.2397 25.0212C22.2397 24.5622 22.3234 24.3194 22.8028 24.3194C23.1517 24.3194 23.3496 24.4459 23.368 24.8029C23.3843 25.1294 23.37 25.4742 23.37 25.7843C23.37 26.2535 23.2945 26.6861 23.672 26.8064C23.927 26.888 24.2575 26.7513 24.2575 26.3474V24.9294C24.2575 24.1235 23.8046 23.5849 22.9844 23.5849H22.6396C21.9704 23.5849 21.3685 23.9358 21.3685 24.6213V26.4025C21.3685 26.9676 22.2825 26.9819 22.2479 26.3474C22.2275 25.9965 22.2397 25.3987 22.2397 25.0212ZM25.9509 24.4071C26.1815 24.3949 26.4508 24.4234 26.6732 24.401C27.1383 24.3561 27.1261 23.6828 26.6568 23.6583C26.4283 23.6461 26.1835 23.6522 25.9529 23.6522C25.9285 23.4645 26.0652 22.8422 25.5102 22.8382C24.9798 22.8341 25.0675 23.3768 25.0675 23.6339C24.9206 23.6706 24.8165 23.6481 24.7084 23.7277C24.5187 23.8664 24.5125 24.1806 24.6982 24.3235C24.8288 24.4234 24.9287 24.3724 25.0369 24.4173C25.1042 24.5112 25.0675 24.756 25.0675 24.8927C25.0675 25.3823 25.0124 25.8985 25.2266 26.2494C25.5837 26.8391 26.1121 26.7881 26.6915 26.7901C27.1343 26.7901 27.1914 26.4412 27.0975 26.2515C26.9649 25.9781 26.665 26.0393 26.31 26.0393C25.9142 26.0393 25.9468 25.7618 25.9468 25.4027C25.9468 25.0885 25.9285 24.7152 25.9509 24.4071ZM31.3637 23.6277H31.3718C31.5657 23.6277 31.733 23.7542 31.7942 23.9297C31.8391 23.9521 31.8799 23.9378 31.9166 23.8828C32.1533 23.54 32.8163 23.4604 33.0571 23.7236C33.2325 23.9276 33.1815 24.2622 32.8551 24.3398C32.5246 24.4112 32.2471 24.2684 31.9921 24.4989C31.9023 24.5805 31.8309 24.6764 31.8146 24.8294V26.3698C31.8146 26.6147 31.6146 26.8146 31.3698 26.8146H31.3616C31.1168 26.8146 30.9169 26.6147 30.9169 26.3698V24.0725C30.9189 23.8277 31.1188 23.6277 31.3637 23.6277Z" fill="#EC0677"/>
<path fill-rule="evenodd" clip-rule="evenodd" d="M34.651 25.4702C34.7898 25.4519 34.9571 25.46 35.106 25.458C35.2203 25.456 35.2509 25.4335 35.255 25.5457C35.2611 25.7151 35.2876 26.0905 35.2019 26.1333C35.1754 26.1476 34.2104 26.2965 34.143 25.8742C34.0798 25.4702 34.496 25.4906 34.651 25.4702ZM35.2325 24.8276C34.9469 24.901 34.0777 24.6541 33.5167 25.2152C33.0005 25.7294 33.1841 26.9045 34.5062 26.8392C34.8285 26.8229 35.1672 26.8005 35.4855 26.7882C35.6732 26.7821 35.8079 26.7923 35.9405 26.7127C36.0486 26.6475 36.1241 26.5475 36.1384 26.3843C36.1649 26.0884 36.1404 25.6579 36.1404 25.3478C36.1404 24.7011 36.1853 24.1951 35.5916 23.7891C34.6572 23.1505 33.4759 23.7381 33.4453 24.2379C33.4269 24.5623 33.7819 24.7051 34.0431 24.5582C34.2634 24.4338 34.4287 24.2196 34.7796 24.2726C34.955 24.2991 35.0366 24.3522 35.1285 24.4522C35.1897 24.5174 35.2386 24.6195 35.2488 24.7133C35.2631 24.8255 35.2325 24.8276 35.2325 24.8276ZM39.5068 25.4723C39.6476 25.4539 39.8047 25.46 39.9598 25.458C40.0597 25.458 40.1087 25.4356 40.1189 25.5294C40.125 25.5865 40.1189 25.6845 40.1189 25.7477C40.1189 25.8722 40.1617 26.0844 40.0557 26.1333C40.021 26.1496 39.0804 26.2986 39.0008 25.8722C38.9213 25.458 39.4171 25.4845 39.5068 25.4723ZM40.0985 24.8337C39.3416 24.8337 38.7968 24.7908 38.3725 25.2152C37.946 25.6416 38.0623 26.3312 38.5051 26.6373C38.7479 26.8066 38.9702 26.8535 39.3599 26.8372C39.6782 26.8229 40.0148 26.7984 40.3392 26.7862C40.5576 26.778 40.9778 26.7964 40.9942 26.3843C41.0084 26.0497 40.9942 25.6865 40.9942 25.3478C40.9942 25.0071 41.0207 24.6541 40.9126 24.3726C40.6147 23.5932 39.6639 23.3015 38.8009 23.6809C38.6112 23.7646 38.3153 23.989 38.301 24.2379C38.2806 24.5582 38.6316 24.7011 38.8988 24.5603C39.1151 24.446 39.2783 24.2175 39.6333 24.2726C39.9026 24.3155 40.1475 24.5113 40.0985 24.8337ZM37.5808 27.184C37.5053 27.6288 37.2381 27.9104 36.8586 28.0471C36.6648 28.1164 36.0527 28.2082 35.8732 27.9981C35.7059 27.8022 35.7283 27.3656 36.2506 27.3656C36.5526 27.3656 36.6954 27.333 36.7199 27.0392C36.7668 26.4863 36.6607 24.1645 36.7382 23.8748C36.8586 23.4259 37.5951 23.4626 37.5951 24.0033C37.5972 24.3583 37.6298 26.8943 37.5808 27.184ZM37.1605 22.2222H37.1422C36.5424 22.2222 36.5424 23.1015 37.1605 23.0974C37.7849 23.0913 37.8032 22.2222 37.1605 22.2222Z" fill="#FFCA08"/>
<defs>
<linearGradient id="paint0_linear_1777_15142" x1="10.2045" y1="18.0858" x2="8.71363" y2="23.8266" gradientUnits="userSpaceOnUse">
<stop stop-color="#ED1F7B"/>
<stop offset="0.66" stop-color="#F2737F"/>
<stop offset="1" stop-color="#FFC226"/>
</linearGradient>
<linearGradient id="paint1_linear_1777_15142" x1="15.1258" y1="20.5105" x2="9.1176" y2="29.4415" gradientUnits="userSpaceOnUse">
<stop stop-color="#ED1F7B"/>
<stop offset="0.29" stop-color="#F04E5E"/>
<stop offset="1" stop-color="#FFC226"/>
</linearGradient>
</defs>
</svg>
