<svg width="48" height="49" viewBox="0 0 48 49" fill="none" xmlns="http://www.w3.org/2000/svg">
<path d="M27.6354 24.5249L27.8763 24.4551L27.6121 24.0903L27.6354 24.5249ZM23.6802 24.4628L23.6336 24.7889C23.7536 24.7772 23.9012 24.8804 23.96 24.6491C23.9556 24.4689 23.8183 24.459 23.6802 24.4628ZM25.5996 24.4551C25.5797 24.3663 25.5055 24.3009 25.3199 24.362L25.382 24.6957C25.5345 24.6619 25.6129 24.5718 25.5996 24.4551ZM21.2637 24.182L21.1895 24.4785C21.3087 24.4835 21.4484 24.5801 21.5275 24.4044C21.5328 24.2943 21.5374 24.1846 21.2637 24.182ZM25.4365 24.9442L25.4909 25.2858C25.6182 25.289 25.7344 25.2126 25.7007 25.0529C25.6682 24.8994 25.5391 24.9237 25.4365 24.9442Z" fill="#005FAF"/>
<path d="M30.4898 12.2824C26.3751 10.1882 21.461 10.2465 17.5405 12.191C15.5188 15.7464 15.4545 20.721 17.5405 25.127C21.8597 27.3105 26.6368 27.1667 30.5202 25.2183C32.3453 21.4776 32.6467 16.9763 30.4898 12.2824ZM23.5405 22.8988L23.2966 22.9016C23.2362 22.2283 23.0751 21.6624 22.7295 21.2294C21.1448 19.244 17.9053 20.7388 18.7377 17.3647C19.1705 15.6398 24.1073 14.6224 23.5405 22.8988ZM18.7435 19.5663C19.0896 20.27 21.2575 20.3852 22.0101 20.9238C23.2038 21.7781 23.0325 22.9019 23.0325 22.9019H22.7509C22.1967 21.2047 20.6411 22.5485 19.3951 22.0914C18.6128 21.8134 18.0448 20.6086 18.7435 19.5663ZM22.6934 25.0993L22.81 24.1755L23.0198 24.191L22.9265 25.2079C22.8324 25.6559 22.1639 25.596 22.0795 25.1691L22.1883 24.1134L22.4369 24.1523L22.3282 25.0372C22.342 25.33 22.636 25.3125 22.6934 25.0993ZM21.577 25.3515L21.3379 25.2938C21.3659 25.0964 21.6003 24.6947 21.137 24.6947L21.0081 25.2197L20.7442 25.1703L21.0245 23.9099C21.7097 23.9844 21.7697 24.1749 21.7833 24.3794C21.7562 24.538 21.7139 24.6488 21.5771 24.6759C21.7372 24.8211 21.579 25.1253 21.577 25.3515ZM20.0581 23.9398C19.9922 24.0271 19.8602 24.3323 19.8411 24.5755C19.8208 24.8333 20.0687 24.7791 20.1304 24.7489C20.1802 24.7248 20.2172 24.5177 20.2172 24.5177L20.0436 24.4599L20.1015 24.2867L20.4921 24.4167L20.3041 25.0671L20.145 25.0236L20.1594 24.9225C19.9647 25.0111 19.6082 24.9446 19.5663 24.7202C19.5245 24.5398 19.6512 23.993 19.8556 23.7376C20.0542 23.4892 20.5382 23.7319 20.55 23.8821C20.5617 24.0316 20.5026 24.2 20.5026 24.2L20.3204 24.1657C20.3204 24.1657 20.3316 24.1116 20.3475 24.0265C20.3643 23.9362 20.1288 23.8459 20.0581 23.9398ZM23.6104 24.9982L23.5638 25.5572L23.3696 25.5495L23.4395 24.222C23.9245 24.2321 24.2025 24.2991 24.1932 24.6413C24.1643 25.1088 23.7854 25.0036 23.6104 24.9982ZM24.0939 22.9018H23.7689C23.7401 21.7522 23.9614 19.6495 23.3568 18.1021C22.8987 16.929 21.7393 16.4013 21.4824 15.4537C21.0756 13.9538 21.7679 12.3309 24.0939 12.2059C26.1103 12.4127 26.7299 13.9679 26.3859 15.4158C25.7946 16.8636 25.2031 16.6555 24.4667 18.0977C23.8653 19.6436 24.0943 21.6688 24.0939 22.9018ZM27.6976 25.0293L27.4723 25.107L27.4023 23.7718L27.6665 23.7019L28.3192 24.8042L28.1405 24.9207L27.9229 24.6103L27.6742 24.7034L27.6976 25.0293ZM25.0686 22.9018H24.8087C25.0229 19.9494 28.7366 20.5908 29.076 19.5663C29.663 20.582 29.452 21.4384 28.8391 21.8774C27.316 22.9688 25.8556 21.0698 25.0686 22.9018ZM26.4467 24.3929L26.5632 25.0062C26.6358 25.1475 26.685 25.1213 26.7963 25.1071C26.9254 25.0138 26.8985 24.9229 26.8741 24.8043L27.0994 24.7733C27.1581 25.2176 26.9467 25.263 26.7886 25.2934C26.4495 25.3177 26.3831 25.2517 26.2913 24.8121C26.2379 24.4359 26.1456 24.0386 26.4622 23.966C26.982 23.8867 26.9513 24.1204 26.9984 24.2842L26.773 24.3232C26.737 24.1824 26.6853 24.1266 26.571 24.137C26.4669 24.1847 26.4241 24.2621 26.4467 24.3929ZM25.9727 25.0293C25.9835 25.2227 25.9178 25.3511 25.7939 25.3942L25.2655 25.5029L25.0557 24.222C25.1641 24.2044 25.6957 24.0098 25.8249 24.3619C25.8886 24.5769 25.8226 24.654 25.7472 24.7499C25.8902 24.7958 25.9384 24.907 25.9727 25.0293ZM24.6157 18.6016C25.7929 15.2903 28.4866 15.8755 29.0841 17.3648C29.9026 20.3532 27.267 19.5337 25.5788 20.7592C24.9407 21.3135 24.605 21.9496 24.6 22.9137H24.3107C24.2934 20.9717 24.2619 19.5966 24.6157 18.6016Z" fill="#005FAF"/>
<path fill-rule="evenodd" clip-rule="evenodd" d="M28.1926 30.5649L27.1041 32.6725C25.6965 31.4128 23.6944 32.1073 23.5077 33.9672C23.5978 36.2225 25.7258 35.8621 26.7651 35.1113L25.7039 37.5172C25.3255 37.7568 21.4673 38.4362 21.3115 34.6597C21.5721 30.1579 25.7329 29.5209 26.5275 29.9822L26.7197 29.7222L28.1926 30.5649ZM29.1896 29.762H32.536L32.8756 37.4875H30.6285L30.5911 36.1573H29.0927L28.5915 37.4875H26.1504L28.6723 31.9727H28.1259L29.1896 29.762ZM30.591 32.221L29.7715 34.3664H30.6284L30.591 32.221ZM19.8198 29.7618C22.2958 29.7618 22.0384 32.5877 20.2977 33.4536C21.9646 34.3776 20.8738 37.51 18.4485 37.4873H15.124L16.3915 32.0407H15.8928L16.9525 29.7618H19.8198ZM17.6174 35.5046H18.4485C19.0718 35.5502 19.6536 34.4791 18.7185 34.2741H17.929L17.6174 35.5046ZM18.2407 32.8839H18.9471C19.342 32.9295 20.0009 32.0179 19.238 31.8128H18.4485L18.2407 32.8839Z" fill="#005FAF"/>
</svg>
