<svg width="48" height="49" viewBox="0 0 48 49" fill="none" xmlns="http://www.w3.org/2000/svg">
<path fill-rule="evenodd" clip-rule="evenodd" d="M17 15.8428L21.2261 21.2017L17 24.7219V15.8428Z" fill="#F15A23"/>
<path fill-rule="evenodd" clip-rule="evenodd" d="M18.7012 24.7222L21.8811 22.0481L24.079 24.7222H18.7012Z" fill="#F15A23"/>
<path fill-rule="evenodd" clip-rule="evenodd" d="M17 12.9739L18.1029 14.3762L22.6374 20.0721L24.1068 18.8959C24.1068 18.8959 22.8869 17.4523 22.0679 15.8414C20.4665 12.6919 21.6002 10.731 21.6002 10.731H17V12.9739Z" fill="#F15A23"/>
<path fill-rule="evenodd" clip-rule="evenodd" d="M23.2842 20.9532L24.7806 19.7107C24.7806 19.7107 26.2098 21.6019 27.867 22.0482C30.0387 22.6331 31.0002 21.2021 31.0002 21.2021V24.7223H26.2303L27.3059 23.7875C27.3059 23.7875 26.7447 24.1636 25.3723 23.208C24.5622 22.644 23.2842 20.9532 23.2842 20.9532Z" fill="#F15A23"/>
<path fill-rule="evenodd" clip-rule="evenodd" d="M23.4218 10.7222C23.4218 10.7222 22.9444 11.3759 23.2842 12.9754C23.6474 14.685 25.0919 16.4944 25.0886 16.4539C25.0886 16.4539 25.1814 14.6572 26.2303 13.6029C28.4661 11.3555 31.0002 12.6933 31.0002 12.6933V10.7324L23.4218 10.7222Z" fill="#F15A23"/>
<path fill-rule="evenodd" clip-rule="evenodd" d="M30.9997 15.0626C30.9997 15.0626 29.5858 13.8452 28.3565 13.8452C26.7841 13.8452 25.9258 15.2099 25.9258 16.1997C25.9258 17.6416 26.6143 18.4428 27.3053 19.1374C28.2984 20.1357 29.5065 21.2123 30.9997 20.3458C30.9997 18.7057 30.9997 15.0626 30.9997 15.0626Z" fill="#F15A23"/>
<path fill-rule="evenodd" clip-rule="evenodd" d="M15.6204 30.2752C15.6204 30.0276 15.0078 29.7222 15.0078 29.7222H18.5083C18.7271 29.7222 20.4335 29.9628 20.4335 31.356C20.4335 32.6485 19.274 32.9708 19.274 32.9708C19.274 32.9708 21.1774 33.1477 21.1774 35.0368C21.1774 36.9259 18.7271 37.3266 18.5083 37.3266H15.0078C15.0078 37.3266 15.6204 36.9321 15.6204 36.6607V30.2752ZM16.8674 30.4682V32.8456H18.2895C18.5083 32.8456 19.274 32.4526 19.274 31.6714C19.274 30.7237 18.5083 30.4682 18.2895 30.4682H16.8674ZM18.5083 33.4691H16.8674V36.4708H18.5083C18.7271 36.4708 20.0179 36.0661 20.0179 34.9243C20.0179 33.8044 18.7271 33.4691 18.5083 33.4691ZM21.959 29.7222H23.8C23.8 29.7222 25.4309 32.1916 26.2324 33.2118C27.0339 34.2321 27.8967 35.3942 27.8967 35.3942V30.2752C27.8967 30.0541 27.3162 29.7222 27.3162 29.7222H29.4391C29.4391 29.7222 28.7425 30.0084 28.7425 30.2752V37.7222C28.7425 37.7222 28.0741 37.3515 27.3162 36.4708C26.4645 35.4812 23.4351 31.4859 23.4351 31.4859V36.6607C23.4351 36.9257 24.0156 37.3266 24.0156 37.3266H21.959C21.959 37.3266 22.5229 36.9225 22.5229 36.6607V30.2752C22.5229 30.0402 21.959 29.7222 21.959 29.7222ZM30.6289 29.7222H32.9917C32.9917 29.7222 32.3573 30.0227 32.3573 30.2752V36.6607C32.3573 36.9366 32.9917 37.3266 32.9917 37.3266H30.6289C30.6289 37.3266 31.2196 36.9277 31.2196 36.6607V30.2752C31.2196 30.0324 30.6289 29.7222 30.6289 29.7222Z" fill="#005E6A"/>
</svg>
