<svg width="48" height="49" viewBox="0 0 48 49" fill="none" xmlns="http://www.w3.org/2000/svg">
<path d="M28.8782 12.3607H19.1223C17.9377 12.3607 16.9775 13.3437 16.9775 14.5564V14.5794V24.2104C16.9775 25.4112 17.9199 26.3878 19.0891 26.4055H28.8729C30.0575 26.4055 31.0183 25.4231 31.0183 24.2104L31.0224 14.5564C31.0224 13.3437 30.0629 12.3607 28.8782 12.3607ZM20.2814 25.2804L19.7496 25.2864C19.1051 25.2864 18.5827 24.7573 18.5827 24.1045L18.5797 24.0115V15.0961L18.5833 14.6155C18.6076 13.9841 19.0879 13.4763 19.7164 13.4763H20.7985C21.7794 13.4763 22.5743 14.3285 22.5743 15.3329C22.5743 15.83 22.3794 16.281 22.0637 16.6089L19.3029 19.4082L21.8908 22.0413C22.2242 22.3852 22.4256 22.8362 22.4256 23.3303C22.4256 24.4075 21.4661 25.2804 20.2814 25.2804ZM28.2368 25.2716L23.4124 25.2698C23.4124 25.2698 23.9698 24.0654 23.9698 23.3197C23.9698 22.41 23.6659 21.598 23.1897 21.0606L21.5395 19.3798L23.2235 17.641C23.7251 17.1705 24.058 16.3348 24.058 15.3826C24.058 14.6286 23.8495 13.961 23.5137 13.4763H24.6823C25.6632 13.4763 26.4587 14.3285 26.4587 15.3329C26.4587 15.83 26.2638 16.281 25.9481 16.6089L23.24 19.3792L28.8646 25.11C28.6863 25.2218 28.4618 25.2716 28.2368 25.2716ZM29.4149 23.4824L25.3842 19.3775L27.3039 17.428C27.6942 16.9397 27.9424 16.2046 27.9424 15.3826C27.9424 14.6238 27.7309 13.9391 27.3921 13.4544L28.251 13.4804C28.8954 13.4804 29.4178 14.0095 29.4178 14.6623L29.4149 23.4824Z" fill="#00529C"/>
<path d="M6.44336 30.4054H9.05486C10.1125 30.4054 10.901 30.8689 10.901 31.8453C10.901 32.5612 10.5351 32.9597 9.90053 33.1713V33.1876C10.6572 33.3424 11.0476 33.7492 11.0476 34.4405C11.0476 35.7991 9.85149 36.0837 8.83467 36.0837H6.44336V30.4054ZM7.95632 32.6511H8.37939C8.87554 32.6511 9.38851 32.529 9.38851 32.0487C9.38851 31.5285 8.90006 31.4795 8.39526 31.4795H7.95632V32.6511ZM7.95632 35.0102H8.40391C8.95727 35.0102 9.53466 34.9285 9.53466 34.3511C9.53466 33.7328 8.94092 33.6761 8.41978 33.6761H7.95632V35.0102Z" fill="#00529C"/>
<path d="M13.0337 30.4055H14.8885L17.0769 36.0837H15.4173L14.9942 34.8717H12.863L12.4154 36.0837H10.8779L13.0337 30.4055ZM13.9611 31.5771H13.9447L13.2125 33.7982H14.6365L13.9611 31.5771Z" fill="#00529C"/>
<path d="M17.2871 30.4055H19.215L21.1351 34.2616H21.151L21.127 30.4055H22.5101V36.0837H20.6303L18.6457 32.203H18.6299L18.678 36.0837H17.2871V30.4055Z" fill="#00529C"/>
<path d="M23.0234 30.4055H24.5364V32.7242H24.5527L26.2609 30.4055H28.083L25.9845 33.0492L28.246 36.0837H26.3176L24.5527 33.5049H24.5364V36.0837H23.0234V30.4055Z" fill="#00529C"/>
<path d="M29.8857 30.4054H32.4972C33.5544 30.4054 34.3439 30.8689 34.3439 31.8453C34.3439 32.5612 33.978 32.9597 33.3434 33.1713V33.1876C34.1001 33.3424 34.49 33.7492 34.49 34.4405C34.49 35.7991 33.2944 36.0837 32.2775 36.0837H29.8857V30.4054ZM31.3987 32.6511H31.8218C32.3184 32.6511 32.8304 32.529 32.8304 32.0487C32.8304 31.5285 32.3429 31.4795 31.8381 31.4795H31.3987V32.6511ZM31.3987 35.0102H31.8463C32.3992 35.0102 32.977 34.9285 32.977 34.3511C32.977 33.7328 32.3833 33.6761 31.8626 33.6761H31.3987V35.0102Z" fill="#00529C"/>
<path d="M34.8262 30.4054H37.5271C38.5357 30.4054 39.3574 30.8612 39.3574 31.8376C39.3574 32.5939 38.9997 33.0982 38.2675 33.2689V33.2852C38.755 33.4155 38.7877 33.8468 39.0728 34.5381L39.6256 36.0837H38.0478L37.7223 35.0592C37.4132 34.0828 37.2175 33.8381 36.6564 33.8381H36.3391V36.0837H34.8262V30.4054ZM36.3391 32.7646H36.7377C37.2261 32.7646 37.8444 32.7482 37.8444 32.1054C37.8444 31.5771 37.3156 31.4795 36.7377 31.4795H36.3391V32.7646Z" fill="#00529C"/>
<path d="M40.043 30.4055H41.5559V36.0838H40.043V30.4055Z" fill="#00529C"/>
</svg>
