<svg width="40" height="40" viewBox="0 0 40 40" fill="none" xmlns="http://www.w3.org/2000/svg">
  <g clip-path="url(#clip0_9243_40104)">
    <path d="M8.23874 20.9845C8.67977 19.1144 7.5213 17.2408 5.6512 16.7998C3.78111 16.3588 1.90757 17.5172 1.46654 19.3873C1.0255 21.2574 2.18398 23.131 4.05407 23.572C5.92416 24.013 7.7977 22.8546 8.23874 20.9845Z" fill="#00AA13"/>
    <path fill-rule="evenodd" clip-rule="evenodd" d="M6.71487 19.3645C6.71054 19.2974 6.69159 19.232 6.65933 19.173C6.62707 19.1139 6.58229 19.0627 6.52813 19.0228C6.41795 18.9443 6.30404 18.8678 6.19012 18.7949C5.73261 19.0041 5.14624 19.3048 4.67378 19.5419C4.59401 19.5838 4.52685 19.6462 4.47925 19.7227C4.43165 19.7991 4.40533 19.887 4.40301 19.977C4.40301 20.2086 4.39367 20.4532 4.39367 20.6904L4.02766 20.1096L3.67098 20.343C3.67098 20.1171 3.68032 19.8911 3.69152 19.6652C3.69629 19.5774 3.72374 19.4924 3.7712 19.4184C3.81867 19.3444 3.88451 19.284 3.9623 19.2431C4.45903 18.9817 5.06968 18.6605 5.544 18.4271C5.38527 18.3449 5.2228 18.2665 5.05847 18.1936C4.99944 18.1685 4.93588 18.1558 4.87173 18.1563C4.80754 18.1554 4.74389 18.1681 4.68499 18.1936C4.16433 18.4056 3.66736 18.6716 3.20226 18.9873C3.14905 19.0258 3.10492 19.0756 3.07298 19.133C3.04105 19.1904 3.02207 19.2542 3.01739 19.3197C2.98751 19.6465 2.9707 19.9789 2.9707 20.3076C2.9707 20.4943 2.9707 20.681 2.98564 20.8678C2.98948 20.9302 3.00624 20.9911 3.03485 21.0467C3.06346 21.1024 3.10329 21.1514 3.15184 21.1908C3.59831 21.5751 4.09071 21.9025 4.61776 22.1656C4.6819 22.1963 4.75209 22.2122 4.82318 22.2122C4.89427 22.2122 4.96446 22.1963 5.02859 22.1656C5.55339 21.8995 6.05336 21.587 6.52252 21.2319C6.57562 21.194 6.61983 21.1449 6.65207 21.0881C6.68432 21.0314 6.70383 20.9683 6.70926 20.9033C6.75159 20.3882 6.75471 19.8707 6.7186 19.3552L6.71487 19.3645Z" fill="white"/>
    <path fill-rule="evenodd" clip-rule="evenodd" d="M37.1998 19.4581C37.1998 18.9931 36.6843 18.6103 36.0793 18.6103H35.999C35.8566 18.6103 35.7156 18.6384 35.5841 18.6929C35.4526 18.7474 35.3331 18.8274 35.2325 18.9282C35.1319 19.0289 35.0521 19.1486 34.9978 19.2802C34.9435 19.4118 34.9157 19.5529 34.9159 19.6952V19.7195C34.9159 20.3899 35.3716 20.8157 36.0793 20.8157C36.6974 20.8157 37.1998 20.4422 37.1998 19.9548V19.4581ZM35.9336 17.6952H36.0214C36.4515 17.6952 36.8683 17.8436 37.2016 18.1154H37.2166V16.332H38.3053V21.7083H37.2969V21.3255H37.2819C36.9596 21.6438 36.5248 21.8223 36.0718 21.8222H35.9635H35.859C35.326 21.8222 34.815 21.6105 34.4381 21.2337C34.0613 20.8569 33.8496 20.3458 33.8496 19.8129V19.7251C33.8496 19.1863 34.0637 18.6695 34.4447 18.2885C34.8257 17.9074 35.3425 17.6934 35.8814 17.6934L35.9336 17.6952ZM29.0541 17.8054H30.1073V18.1789H30.1223C30.4741 17.8702 30.9259 17.6997 31.394 17.699H31.4407C32.5443 17.699 33.3081 18.4273 33.3081 19.488V21.7083H32.2175V19.6243C32.2175 19.0286 31.8272 18.6663 31.2016 18.6663H31.1064C30.851 18.6663 30.606 18.7675 30.425 18.9478C30.2441 19.128 30.1419 19.3726 30.1409 19.628V21.7083H29.0504V17.8054H29.0541ZM27.4388 19.3516C27.3865 18.8867 26.9813 18.5916 26.4005 18.5916C25.8197 18.5916 25.4052 18.8867 25.3473 19.3516H27.4388ZM26.3519 17.6952H26.4528C26.988 17.6952 27.5014 17.9076 27.8802 18.2857C28.259 18.6638 28.4723 19.1768 28.4733 19.712C28.4733 19.7382 28.4733 19.7662 28.4733 19.7942V20.1023H25.2987C25.3361 20.6103 25.7562 20.9352 26.4042 20.9352C26.635 20.933 26.8624 20.8796 27.0701 20.7789C27.2777 20.6781 27.4604 20.5325 27.605 20.3526L28.2829 21.0304C28.0588 21.2788 27.7852 21.4775 27.4796 21.6135C27.174 21.7496 26.8433 21.82 26.5088 21.8204H26.4117C25.0485 21.8204 24.225 21.0024 24.225 19.7662C24.224 19.7507 24.224 19.7351 24.225 19.7195C24.2247 19.453 24.2771 19.189 24.379 18.9427C24.481 18.6964 24.6305 18.4727 24.8191 18.2843C25.0076 18.0959 25.2315 17.9466 25.4779 17.8448C25.7243 17.7431 25.9883 17.691 26.2548 17.6915H26.3519V17.6952ZM20.7497 20.1994C20.9028 20.6999 21.3099 20.9464 21.928 20.9464C22.4883 20.9464 22.8188 20.8213 22.8188 20.6065C22.8188 20.3918 22.5835 20.276 21.8534 20.1658C20.4248 19.9436 19.9168 19.6056 19.9168 18.8979C19.9168 18.1901 20.6395 17.6915 21.7133 17.6915C22.6937 17.6915 23.5807 18.192 23.7899 18.8698L22.7964 19.1705C22.7048 18.9858 22.5634 18.8304 22.3882 18.7219C22.213 18.6133 22.0109 18.5559 21.8048 18.5561C21.7718 18.5543 21.7388 18.5543 21.7058 18.5561C21.2576 18.5561 20.9589 18.6887 20.9589 18.8941C20.9589 19.0995 21.1661 19.1742 22.027 19.3218C23.3454 19.5272 23.8683 19.882 23.8683 20.5953C23.8683 21.3087 23.0877 21.811 21.9168 21.811H21.8309C21.3482 21.8121 20.8741 21.6831 20.4584 21.4375C20.2749 21.3304 20.1156 21.1865 19.9902 21.0149C19.8649 20.8433 19.7764 20.6477 19.7301 20.4403L20.7534 20.1957L20.7497 20.1994ZM17.2296 18.6532C17.0111 18.6543 16.7979 18.7202 16.6168 18.8424C16.4357 18.9646 16.2949 19.1378 16.2121 19.34C16.1293 19.5422 16.1084 19.7644 16.1518 19.9785C16.1952 20.1926 16.3012 20.3891 16.4562 20.5431C16.6112 20.697 16.8083 20.8016 17.0228 20.8436C17.2372 20.8856 17.4592 20.8631 17.6609 20.779C17.8625 20.6949 18.0347 20.5529 18.1557 20.371C18.2767 20.1891 18.3411 19.9754 18.3407 19.7569C18.3417 19.7407 18.3417 19.7245 18.3407 19.7083C18.3403 19.4281 18.2287 19.1596 18.0306 18.9615C17.8325 18.7634 17.564 18.6519 17.2838 18.6514L17.2296 18.6532ZM17.2483 17.6952C18.5219 17.6952 19.45 18.6009 19.45 19.7494C19.45 20.8979 18.5163 21.8036 17.2483 21.8036C17.2035 21.8036 17.1549 21.8036 17.1101 21.8036C16.5619 21.8036 16.0361 21.5858 15.6484 21.1981C15.2607 20.8104 15.0429 20.2846 15.0429 19.7363C15.0429 19.1881 15.2607 18.6623 15.6484 18.2746C16.0361 17.8869 16.5619 17.6691 17.1101 17.6691C17.1549 17.6691 17.2035 17.6691 17.2483 17.6691V17.6952ZM13.3753 19.5981C13.3753 19.1574 12.8748 18.7522 12.3146 18.7522C11.6087 18.7522 11.1363 19.1798 11.1363 19.8204C11.1363 19.8428 11.1363 19.867 11.1363 19.8913C11.1363 20.0267 11.1629 20.1607 11.2147 20.2858C11.2665 20.4109 11.3425 20.5245 11.4382 20.6202C11.5339 20.7159 11.6475 20.7919 11.7726 20.8437C11.8977 20.8955 12.0317 20.9221 12.1671 20.9221C12.2025 20.924 12.2381 20.924 12.2735 20.9221C12.8842 20.9221 13.3772 20.5393 13.3772 20.0613V19.5981H13.3753ZM11.0858 21.9007C11.2252 22.0991 11.4103 22.2611 11.6255 22.3729C11.8407 22.4847 12.0796 22.543 12.3221 22.543H12.393C13.0055 22.543 13.4537 22.1528 13.4537 21.6224V21.3423H13.4388C13.1281 21.6456 12.7114 21.8157 12.2773 21.8166H12.1801H12.1204C11.8473 21.8249 11.5753 21.7782 11.3205 21.6794C11.0658 21.5806 10.8335 21.4317 10.6374 21.2414C10.4413 21.0511 10.2854 20.8234 10.1789 20.5718C10.0724 20.3202 10.0176 20.0497 10.0176 19.7765C10.0176 19.5032 10.0724 19.2328 10.1789 18.9811C10.2854 18.7295 10.4413 18.5018 10.6374 18.3115C10.8335 18.1213 11.0658 17.9723 11.3205 17.8735C11.5753 17.7747 11.8473 17.7281 12.1204 17.7363H12.1428H12.2548C12.6932 17.737 13.1155 17.9015 13.4388 18.1976H13.4537V17.8241H14.4995V21.6056C14.4995 22.7092 13.6237 23.473 12.393 23.473C12.3482 23.473 12.3034 23.473 12.2567 23.473C11.8818 23.4729 11.5117 23.389 11.1734 23.2275C10.8352 23.0659 10.5373 22.8308 10.3015 22.5393L11.0858 21.8988V21.9007Z" fill="black"/>
  </g>
  <defs>
    <clipPath id="clip0_9243_40104">
      <rect width="36.93" height="7.33333" fill="white" transform="translate(1.375 16.332)"/>
    </clipPath>
  </defs>
</svg>
