<svg width="40" height="40" viewBox="0 0 40 40" fill="none" xmlns="http://www.w3.org/2000/svg">
  <path d="M29.1183 17.7821V14.0128H29.8876V17.2564C29.6824 17.359 29.3876 17.5641 29.1183 17.7821ZM27.785 18.9103C28.0158 18.6282 28.2722 18.3333 28.5542 18.0897V14H27.785V18.9103ZM18.8235 21.9103C18.8235 22.9231 19.2209 23.8718 19.9517 24.6026C20.6824 25.3333 21.6312 25.7308 22.644 25.7308C23.0671 25.7308 23.503 25.641 23.8235 25.4872V24.7179C23.4645 24.8718 23.0286 24.9615 22.644 24.9615C20.9901 24.9615 19.5927 23.5641 19.5927 21.9231V21.2308C19.5927 19.5769 20.9901 18.1923 22.644 18.1923C23.4645 18.1923 24.2337 18.5128 24.7978 19.0769C25.3747 19.6538 25.6824 20.4103 25.6824 21.2308V25.7436H26.4517V21.0769C26.4004 20.0897 25.9773 19.1667 25.2722 18.4744C24.5542 17.7821 23.6183 17.3974 22.644 17.3974C21.6312 17.3974 20.6824 17.7949 19.9517 18.5256C19.2209 19.2564 18.8235 20.2051 18.8235 21.2179V21.9103ZM30.4004 20.0641C30.003 20.4231 29.285 21.2308 28.7081 21.9103C28.0671 22.6538 27.6696 23.141 26.9901 24.0256V22.8205C27.6055 22 28.3235 21.1795 28.8235 20.641C29.1183 20.2949 29.6055 19.8077 29.8106 19.6026C30.5799 18.9103 31.2337 18.7564 31.644 18.7564C32.285 18.7564 32.9132 19.0128 33.3876 19.5C33.8619 19.9744 34.1183 20.5897 34.1183 21.2436V21.9359C34.1183 23.2949 33.003 24.4103 31.644 24.4103C31.0799 24.4103 30.5286 24.1795 30.0799 23.782C29.644 23.3846 29.3363 22.8333 29.2209 22.2436L29.8491 21.4744C29.8747 21.9615 30.0799 22.5128 30.3876 22.9231C30.7337 23.3846 31.1824 23.641 31.644 23.641C32.5927 23.641 33.3491 22.8974 33.3491 21.9359V21.2436C33.3491 20.2949 32.6055 19.5385 31.644 19.5385C31.2081 19.5128 30.7465 19.7051 30.4004 20.0641ZM12.144 18.6026V17.6923C11.4389 17.3205 10.6824 17.1538 9.66962 17.1538C8.63116 17.1538 7.6568 17.5385 6.91321 18.2179C6.16962 18.9103 5.75936 19.8077 5.75936 20.7692V21.0128C5.75936 23.0128 7.36193 24.6282 9.32347 24.6282C10.926 24.6282 11.5799 24.1026 11.7465 23.9359V21.6154H9.13116V22.3846H11.0158V23.5513H11.003C10.7594 23.6538 10.2594 23.8462 9.31065 23.8462C8.55424 23.8462 7.86193 23.5513 7.33629 23.0256C6.81065 22.4872 6.51577 21.7692 6.51577 21V20.7564C6.51577 19.2179 7.95167 17.9103 9.6568 17.9103C10.8491 17.9231 11.5414 18.1154 12.144 18.6026ZM17.7722 19.5128C16.7722 19.5128 16.0671 20.2179 16.0671 21.2179V25.7308H15.2978V21.2179C15.2978 19.8077 16.3619 18.7436 17.7722 18.7436C18.144 18.7436 18.644 18.8333 18.8491 18.9872C18.7081 19.2308 18.6055 19.4231 18.5158 19.6667C18.3106 19.5641 18.0671 19.5128 17.7722 19.5128ZM4.40039 20.7692C4.40039 18.1026 6.81065 15.859 9.6568 15.859C10.7337 15.859 11.4901 15.9872 12.1312 16.2564V17.1282C11.5158 16.7564 10.7594 16.5897 9.6568 16.5897C8.47731 16.5897 7.36193 17.0385 6.50295 17.8462C5.6568 18.641 5.16962 19.7051 5.16962 20.7821V21.0256C5.16962 22.1667 5.5927 23.2179 6.36193 24C7.13116 24.7821 8.18244 25.2179 9.31065 25.2179C11.0414 25.2179 11.926 24.5897 12.2978 24.2179V21.0641H9.13116V20.2949H13.0927V24.4615C13.0671 24.5 12.7722 24.8974 12.1183 25.2821C11.3235 25.7564 10.3876 26 9.32347 26C8.00295 26 6.75936 25.4872 5.84911 24.5641C4.92603 23.6282 4.41321 22.3846 4.41321 21.0385V20.7692H4.40039ZM25.1183 25.7308H24.3491V21.2179C24.3491 20.2692 23.6055 19.5128 22.644 19.5128C21.6953 19.5128 20.9388 20.2564 20.9388 21.2179V21.9103C20.9388 22.859 21.6824 23.6154 22.644 23.6154C23.0799 23.6154 23.5158 23.4744 23.8235 23.2308V24.0513C23.5158 24.3077 23.0158 24.3974 22.644 24.3974C21.2978 24.3974 20.1696 23.2564 20.1696 21.9231V21.2308C20.1696 20.5897 20.426 19.9615 20.9004 19.4872C21.3747 19.0128 21.9901 18.7436 22.644 18.7436C24.0286 18.7436 25.1183 19.8333 25.1183 21.2179V25.7308ZM17.7722 18.1667C15.9773 18.1667 14.7209 19.4231 14.7209 21.2051V25.7179H13.9517V21.2051C13.9517 20.141 14.3363 19.1795 15.0286 18.4744C15.7209 17.7692 16.6953 17.3846 17.7722 17.3846C18.5286 17.3846 19.2594 17.5897 19.6953 17.9231C19.5542 18.0641 19.3491 18.2692 19.1568 18.5C18.7465 18.2821 18.2978 18.1667 17.7722 18.1667ZM34.3363 18.5256C33.6055 17.7949 32.6568 17.3974 31.644 17.3974C30.9132 17.3974 30.1696 17.6667 29.7594 17.9487C28.9132 18.5128 28.2209 19.1154 26.9773 20.7308V21.8846C28.0286 20.5128 29.0286 19.4231 29.7978 18.8205C30.2978 18.4231 31.003 18.1667 31.644 18.1667C33.2978 18.1667 34.6953 19.5641 34.6953 21.2051V21.8974C34.6953 22.7179 34.3747 23.4744 33.785 24.0513C33.2081 24.6282 32.4517 24.9359 31.644 24.9359C30.285 24.9359 29.0927 24 28.7722 22.7308L28.2209 23.3974C28.6183 24.7308 30.0542 25.7179 31.644 25.7179C32.6568 25.7179 33.6055 25.3205 34.3363 24.5897C35.0671 23.859 35.4645 22.9103 35.4645 21.8974V21.2051C35.4645 20.2051 35.0671 19.2436 34.3363 18.5256Z" fill="#009A3C"/>
</svg>
