<svg width="40" height="40" viewBox="0 0 40 40" fill="none" xmlns="http://www.w3.org/2000/svg">
  <path fill-rule="evenodd" clip-rule="evenodd" d="M25.2695 23.0551L27.3795 13H35.2587L34.7305 15.5141H30.7909L30.5275 16.7712H33.8792L33.3525 19.2854H29.9992L29.7359 20.5409H33.6771L33.1504 23.0551H25.2695Z" fill="#25387B"/>
  <path fill-rule="evenodd" clip-rule="evenodd" d="M3.2027 23.0549C10.2108 19.7032 19.6932 17.5673 28.3426 16.7711C30.6792 16.5552 32.9943 16.4358 36.2173 16.4358C36.3429 16.4358 36.5527 16.3944 36.7195 16.3516L36.0688 19.4521C36.0336 19.619 35.7549 19.7032 35.5452 19.7032C15.7842 19.7032 3.95603 23.0549 3.95603 23.0549H3.20117H3.2027Z" fill="#DF2128"/>
  <path fill-rule="evenodd" clip-rule="evenodd" d="M13.8145 23.0551L15.9228 13H19.6941L21.9372 17.5674L22.8942 13H26.6654L24.557 23.0551H20.7858L18.5794 18.3207L17.5857 23.0551H13.8145Z" fill="#25387B"/>
  <path fill-rule="evenodd" clip-rule="evenodd" d="M10.2111 18.8658L11.4406 13H15.2118L13.7358 20.0387C13.2795 22.2175 11.583 23.0551 9.33219 23.0551H6.55469L7.18705 20.0387H8.44412C9.36588 20.0387 10.0335 19.7034 10.2095 18.8658H10.2111Z" fill="#25387B"/>
  <path d="M22.2986 26.3955L22.3782 25.8612H23.2173L23.2923 25.2962H22.4548L22.5129 24.8736H23.3796L23.4546 24.3086H22.1087L21.752 26.959H23.1621L23.2387 26.3955H22.2986Z" fill="#25387C"/>
  <path d="M25.2662 24.3086H24.6813L24.4057 24.7909C24.3644 24.8644 24.3154 24.9532 24.2603 25.0558C24.2174 24.9195 24.1944 24.843 24.1898 24.8277L24.0153 24.3086H23.5146L23.9372 25.6101L23.1777 26.959H23.7749L24.0183 26.5318C24.075 26.4323 24.1209 26.3496 24.1561 26.2822C24.1776 26.3527 24.2021 26.4354 24.2327 26.5303L24.3705 26.959H24.9003L24.4807 25.7081L25.2662 24.3086Z" fill="#25387C"/>
  <path d="M26.6139 25.0099C26.6139 24.8644 26.5925 24.7373 26.5496 24.6301C26.5036 24.5184 26.4393 24.4341 26.3597 24.3836C26.2801 24.3331 26.1745 24.3086 26.0443 24.3086H25.3231L24.9648 26.959H25.4456L25.5742 26.0036H25.7243C25.8743 26.0036 25.9754 25.9975 26.0336 25.9852C26.1331 25.9638 26.2127 25.9316 26.274 25.8887C26.3337 25.8459 26.3903 25.7846 26.4424 25.705C26.4929 25.6269 26.5343 25.5259 26.568 25.3972C26.6016 25.2717 26.6185 25.1415 26.6185 25.0099H26.6139ZM25.7258 24.8659H25.9004C26.0397 24.8659 26.0703 24.8812 26.0734 24.8828C26.0902 24.892 26.104 24.9088 26.1147 24.9333C26.1285 24.9624 26.1346 25.0022 26.1346 25.0527C26.1346 25.1324 26.1193 25.2058 26.0902 25.2702C26.0627 25.3314 26.0275 25.3743 25.9815 25.4018C25.9555 25.4171 25.8789 25.4432 25.6661 25.4432H25.6462L25.7243 24.8659H25.7258Z" fill="#25387C"/>
  <path d="M27.8817 26.0311C27.8572 25.9699 27.8327 25.9148 27.8067 25.8673C27.946 25.8183 28.0532 25.7295 28.1298 25.6024C28.2186 25.4539 28.263 25.264 28.263 25.039C28.263 24.8812 28.24 24.7434 28.1941 24.6301C28.1451 24.5107 28.0792 24.425 27.9966 24.3775C27.9154 24.3316 27.8098 24.3086 27.672 24.3086H26.8895L26.5312 26.959H27.012L27.1514 25.9224H27.2233C27.3014 25.9224 27.329 25.9408 27.3351 25.9485C27.3642 25.9806 27.4117 26.0587 27.4637 26.2455C27.5464 26.541 27.6031 26.7615 27.6306 26.9008L27.6429 26.959H28.1543L28.1313 26.8687C28.0394 26.5104 27.9552 26.2287 27.8802 26.0296L27.8817 26.0311ZM27.2938 24.8751H27.5969C27.7118 24.8751 27.7378 24.8966 27.7378 24.8966C27.7699 24.9272 27.7868 24.9792 27.7868 25.0497C27.7868 25.1155 27.773 25.1798 27.7439 25.2411C27.7164 25.2977 27.6827 25.3391 27.6367 25.3636C27.6107 25.3789 27.5326 25.4034 27.3167 25.4034H27.2233L27.2938 24.8766V24.8751Z" fill="#25387C"/>
  <path d="M29.7095 25.8612L29.786 25.2962H28.9485L29.0067 24.8736H29.8718L29.9483 24.3086H28.6024L28.2441 26.959H29.6543L29.7324 26.3955H28.7923L28.8719 25.8612H29.7095Z" fill="#25387B"/>
  <path d="M30.7127 24.8199C30.7831 24.8199 30.8321 24.8413 30.8658 24.8857C30.9041 24.9378 30.9286 25.0174 30.9347 25.1215L30.9393 25.195L31.4017 25.1629L31.3986 25.0924C31.3879 24.849 31.3251 24.6499 31.2118 24.5014C31.0939 24.3452 30.9255 24.2656 30.7127 24.2656C30.5014 24.2656 30.3375 24.3468 30.2258 24.5045C30.1186 24.6561 30.065 24.8459 30.065 25.071C30.065 25.1996 30.0834 25.3145 30.1186 25.4125C30.1553 25.512 30.2074 25.5947 30.2717 25.659C30.3329 25.7187 30.4263 25.7906 30.5565 25.8779C30.7111 25.982 30.7555 26.0264 30.7693 26.0448C30.7984 26.0831 30.8137 26.1306 30.8137 26.1887C30.8137 26.2576 30.7953 26.3143 30.7571 26.3618C30.7234 26.4046 30.6637 26.4245 30.5779 26.4245C30.4401 26.4245 30.3957 26.371 30.3728 26.3281C30.359 26.3036 30.336 26.2332 30.3299 26.0448L30.3283 25.9683L29.869 26.005L29.8675 26.0708C29.8644 26.2454 29.8858 26.4031 29.9303 26.5394C29.9762 26.6833 30.0589 26.7966 30.1737 26.8778C30.287 26.9589 30.4233 27.0003 30.5779 27.0003C30.803 27.0003 30.9821 26.9114 31.1092 26.7354C31.2302 26.5669 31.2914 26.3618 31.2914 26.126C31.2914 25.933 31.2486 25.7723 31.1659 25.6467C31.1092 25.561 30.9852 25.4538 30.7908 25.3236C30.6468 25.2257 30.5902 25.1721 30.5687 25.143C30.5427 25.1093 30.5305 25.0649 30.5305 25.0098C30.5305 24.95 30.5442 24.9026 30.5733 24.8658C30.5978 24.8337 30.6453 24.8184 30.7127 24.8184V24.8199Z" fill="#25387C"/>
  <path d="M32.3524 25.3252C32.207 25.2272 32.1518 25.1736 32.1304 25.1445C32.1044 25.1108 32.0906 25.0664 32.0906 25.0113C32.0906 24.9516 32.1044 24.9041 32.1335 24.8674C32.158 24.8352 32.2054 24.8199 32.2728 24.8199C32.3432 24.8199 32.3922 24.8413 32.4259 24.8857C32.4657 24.9378 32.4887 25.0174 32.4948 25.1215L32.4994 25.195L32.9618 25.1629L32.9587 25.0924C32.948 24.849 32.8853 24.6499 32.7719 24.5014C32.654 24.3452 32.4856 24.2656 32.2728 24.2656C32.0615 24.2656 31.8977 24.3468 31.7859 24.5045C31.6787 24.6545 31.6251 24.8459 31.6251 25.071C31.6251 25.1996 31.6435 25.3145 31.6787 25.4125C31.7155 25.512 31.7675 25.5947 31.8318 25.659C31.8931 25.7187 31.9865 25.7906 32.1166 25.8779C32.2713 25.982 32.3157 26.0264 32.3294 26.0448C32.3585 26.0831 32.3738 26.1306 32.3738 26.1887C32.3738 26.2576 32.3555 26.3143 32.3172 26.3618C32.2835 26.4046 32.2238 26.4245 32.1381 26.4245C32.0002 26.4245 31.9558 26.371 31.9329 26.3281C31.9191 26.3036 31.8946 26.2332 31.89 26.0448L31.8869 25.9683L31.4276 26.005L31.4261 26.0708C31.423 26.2454 31.4444 26.4031 31.4888 26.5394C31.5348 26.6833 31.6175 26.7966 31.7308 26.8778C31.8441 26.9589 31.9803 27.0003 32.135 27.0003C32.3601 27.0003 32.5392 26.9114 32.6648 26.7354C32.7857 26.5669 32.8485 26.3618 32.8485 26.126C32.8485 25.933 32.8056 25.7723 32.723 25.6467C32.6663 25.561 32.5438 25.4538 32.3478 25.3236L32.3524 25.3252Z" fill="#25387C"/>
</svg>
