<svg width="48" height="49" viewBox="0 0 48 49" fill="none" xmlns="http://www.w3.org/2000/svg">
<g clip-path="url(#clip0_1777_15133)">
<path fill-rule="evenodd" clip-rule="evenodd" d="M19.1191 21.8632H23.055L21.1181 28.7918H23.8422L25.7791 21.8632H28.9572L29.6888 21.0383H27.115L27.4547 20.6535H30.0351L30.4009 20.2427H27.7585L28.0982 19.6982H30.8843L31.3089 19.2222H20.3309L19.1191 21.8632Z" fill="#ED3237"/>
<path fill-rule="evenodd" clip-rule="evenodd" d="M8.9543 28.8864H1.50391L2.64711 27.0409L6.93247 27.067L8.88244 19.2939H11.3681L9.37892 27.067L8.9543 28.8864Z" fill="#ED3237"/>
<path fill-rule="evenodd" clip-rule="evenodd" d="M20.5339 28.7888H18.1169L17.7021 28.329C16.5491 29.017 15.1707 29.3659 13.7989 29.1637C12.1102 28.8311 11.0944 27.8073 11.2381 26.1347C11.4635 24.9674 11.9763 23.9925 12.734 23.1839C11.8881 21.4917 12.1984 20.331 12.7406 19.2778H18.584L17.6073 21.5015C16.8496 19.9756 14.4521 20.3603 14.5468 22.4014L17.4081 25.5608C17.6531 25.2609 17.9013 24.5762 18.1463 23.8002L19.9427 24.6935C19.6716 25.5152 19.3613 26.3336 18.9367 27.0183L18.9433 27.0248L20.5339 28.7888ZM16.2747 26.7412L14.0602 24.4425C11.7607 26.1054 14.0928 28.8181 16.2747 26.7412Z" fill="#ED3237"/>
<path fill-rule="evenodd" clip-rule="evenodd" d="M29.9691 25.1661C29.9691 25.1792 29.9691 25.1987 29.9659 25.2281C29.9626 25.2542 29.9593 25.2868 29.9528 25.3226C29.9463 25.3552 29.9397 25.3911 29.9299 25.4302C29.9201 25.4694 29.9104 25.502 29.894 25.5346C29.881 25.5639 29.8646 25.59 29.845 25.6128C29.8254 25.6324 29.8026 25.6422 29.7797 25.6422H28.4765L28.2968 26.5323H29.4041C29.4302 26.5323 29.4498 26.5421 29.4596 26.5584C29.4727 26.5779 29.4792 26.604 29.4792 26.6366C29.4792 26.6529 29.4759 26.6725 29.4759 26.6986C29.4727 26.7247 29.4661 26.7573 29.4596 26.7931C29.4563 26.8257 29.4498 26.8616 29.44 26.8975C29.4302 26.9333 29.4171 26.9659 29.4041 26.9953C29.391 27.0246 29.3714 27.0507 29.3551 27.0703C29.3355 27.0866 29.3159 27.0964 29.293 27.0964H28.1858L27.98 28.1234H29.2996C29.3224 28.1234 29.342 28.1332 29.3518 28.156C29.3616 28.1723 29.3681 28.2017 29.3681 28.2408C29.3681 28.2538 29.3681 28.2734 29.3649 28.3027C29.3649 28.3321 29.3583 28.3647 29.3518 28.3973C29.3453 28.4332 29.3388 28.469 29.329 28.5049C29.3192 28.5408 29.3094 28.5734 29.293 28.606C29.28 28.6353 29.2636 28.6614 29.244 28.681C29.2244 28.6973 29.2048 28.707 29.182 28.707H27.3431C27.3137 28.707 27.2875 28.7038 27.2614 28.694C27.2353 28.6875 27.2157 28.6712 27.2026 28.6516C27.1863 28.6321 27.1732 28.6092 27.1699 28.5799C27.1634 28.5505 27.1634 28.5147 27.1699 28.4723L27.8069 25.2933C27.8232 25.2118 27.8591 25.1498 27.9114 25.114C27.9604 25.0781 28.0192 25.0585 28.0812 25.0585H29.8973C29.9463 25.0585 29.9691 25.0944 29.9691 25.1661ZM32.0563 26.8257L32.6181 28.4201C32.6377 28.4886 32.6508 28.5408 32.654 28.5831C32.6573 28.6223 32.6442 28.6549 32.6181 28.6744C32.592 28.6973 32.5495 28.7103 32.4907 28.7168C32.4287 28.7234 32.347 28.7234 32.2392 28.7234C32.1608 28.7234 32.102 28.7234 32.0563 28.7201C32.0106 28.7168 31.9779 28.7103 31.9518 28.7005C31.9256 28.6907 31.9093 28.681 31.8995 28.6647C31.8865 28.6516 31.8799 28.6321 31.8701 28.6092L31.4259 27.2822L30.4885 28.6092C30.4722 28.6321 30.4558 28.6516 30.4362 28.6647C30.4199 28.681 30.3938 28.6907 30.3611 28.7005C30.3284 28.7103 30.2827 28.7168 30.2304 28.7201C30.1749 28.7234 30.1063 28.7234 30.0214 28.7234C29.9234 28.7234 29.845 28.7234 29.7895 28.7168C29.734 28.7103 29.6948 28.6973 29.6784 28.6777C29.6621 28.6581 29.6621 28.6255 29.6817 28.5864C29.698 28.5473 29.7307 28.4951 29.7797 28.4299L30.9817 26.8225L30.4722 25.3389C30.4526 25.2737 30.4395 25.2216 30.4362 25.1792C30.433 25.14 30.446 25.1107 30.4722 25.0911C30.495 25.0683 30.5375 25.0553 30.5995 25.052C30.6583 25.0455 30.7433 25.0422 30.8478 25.0422C30.9262 25.0422 30.9915 25.0455 31.0372 25.0488C31.0829 25.052 31.1189 25.0585 31.145 25.0683C31.1711 25.0781 31.1907 25.0911 31.2005 25.1074C31.2136 25.1237 31.2234 25.1466 31.2299 25.1726L31.6186 26.3627L32.4744 25.1563C32.4874 25.1368 32.5038 25.1172 32.5234 25.1009C32.5397 25.0879 32.5626 25.0748 32.592 25.0651C32.6246 25.0585 32.6638 25.052 32.7128 25.0488C32.7618 25.0455 32.8271 25.0422 32.9088 25.0422C33.0133 25.0422 33.095 25.0455 33.1538 25.052C33.2126 25.0553 33.2485 25.0683 33.2681 25.0911C33.2844 25.1107 33.2844 25.14 33.2681 25.1792C33.2518 25.2216 33.2191 25.2737 33.1734 25.3389L32.0563 26.8257ZM36.162 25.9552C36.162 26.0595 36.149 26.1704 36.1261 26.2845C36.1032 26.3986 36.064 26.5127 36.0118 26.6203C35.9595 26.7312 35.8909 26.8355 35.806 26.9333C35.7211 27.0311 35.6198 27.1192 35.499 27.1974C35.3781 27.2724 35.2344 27.3344 35.0743 27.3768C34.9143 27.4224 34.7281 27.442 34.5125 27.442H34.1304L33.8952 28.6092C33.892 28.6288 33.8822 28.6451 33.8691 28.6614C33.8528 28.6744 33.8299 28.6875 33.7972 28.6973C33.7646 28.707 33.7254 28.7136 33.6764 28.7168C33.6274 28.7234 33.5653 28.7234 33.4967 28.7234C33.4249 28.7234 33.3693 28.7234 33.3204 28.7168C33.2746 28.7136 33.2387 28.707 33.2126 28.6973C33.1864 28.6875 33.1701 28.6744 33.1603 28.6614C33.1505 28.6484 33.1472 28.6288 33.1538 28.6092L33.8136 25.3259C33.8299 25.2379 33.8658 25.1694 33.9246 25.127C33.9801 25.0814 34.0487 25.0585 34.1304 25.0585H34.9306C35.0286 25.0585 35.1168 25.0618 35.1919 25.0683C35.2703 25.0748 35.3454 25.0879 35.4206 25.1009C35.5349 25.1237 35.6394 25.1596 35.7309 25.2053C35.8223 25.2542 35.8974 25.3129 35.9628 25.3813C36.0281 25.4531 36.0771 25.5346 36.1098 25.6324C36.1424 25.7269 36.162 25.8345 36.162 25.9552ZM35.3814 26.0367C35.3814 25.9487 35.3585 25.8704 35.316 25.8019C35.2736 25.7367 35.205 25.6911 35.1168 25.665C35.0743 25.6519 35.0319 25.6422 34.9829 25.6389C34.9339 25.6324 34.8784 25.6324 34.8196 25.6324H34.4929L34.2447 26.8714H34.5844C34.6922 26.8714 34.7836 26.8583 34.8588 26.8323C34.9372 26.8094 35.0025 26.7736 35.0613 26.7344C35.1201 26.692 35.1691 26.6431 35.2083 26.5877C35.2507 26.529 35.2834 26.4703 35.3095 26.4084C35.3324 26.3464 35.352 26.2845 35.3618 26.2193C35.3748 26.1573 35.3814 26.0954 35.3814 26.0367ZM39.2846 25.8541C39.2846 25.978 39.2683 26.0954 39.2356 26.2128C39.2029 26.3334 39.1507 26.4443 39.0788 26.5486C39.007 26.6562 38.9122 26.7507 38.8012 26.8355C38.6869 26.9203 38.5464 26.9888 38.3831 27.0377C38.4745 27.0735 38.5497 27.1453 38.6117 27.2496C38.6738 27.3572 38.726 27.5007 38.7652 27.6865L38.9057 28.4266C38.9155 28.469 38.922 28.5049 38.9286 28.5375C38.9351 28.5701 38.9384 28.5995 38.9384 28.6223C38.9384 28.6386 38.9318 28.6549 38.9188 28.6679C38.9057 28.681 38.8861 28.6907 38.8502 28.7005C38.8175 28.7103 38.775 28.7168 38.7195 28.7201C38.664 28.7234 38.5921 28.7234 38.5072 28.7234C38.4288 28.7234 38.3635 28.7234 38.3178 28.7168C38.272 28.7136 38.2328 28.707 38.2067 28.694C38.1806 28.6842 38.1642 28.6712 38.1577 28.6549C38.1479 28.6386 38.1414 28.619 38.1381 28.5962L37.9977 27.7876C37.9846 27.693 37.9617 27.6115 37.9356 27.5398C37.9127 27.4681 37.8768 27.4094 37.8376 27.3605C37.7984 27.3115 37.7494 27.2757 37.6939 27.2529C37.6351 27.23 37.5665 27.217 37.4849 27.217H37.2497L36.9721 28.6092C36.9721 28.6288 36.9623 28.6451 36.9459 28.6614C36.9296 28.6744 36.9067 28.6875 36.8773 28.6973C36.8447 28.707 36.8055 28.7136 36.7565 28.7168C36.7075 28.7234 36.6454 28.7234 36.5736 28.7234C36.5017 28.7234 36.4462 28.7234 36.4005 28.7168C36.3515 28.7136 36.3155 28.707 36.2894 28.6973C36.2633 28.6875 36.2469 28.6744 36.2371 28.6614C36.2273 28.6484 36.2241 28.6288 36.2306 28.6092L36.8969 25.2933C36.9133 25.2118 36.9459 25.1498 36.9949 25.114C37.0472 25.0781 37.1092 25.0585 37.1778 25.0585H38.1577C38.3308 25.0585 38.4843 25.0748 38.6248 25.1074C38.762 25.14 38.8796 25.189 38.9776 25.2542C39.0788 25.3194 39.1539 25.4041 39.2062 25.502C39.2585 25.603 39.2846 25.7204 39.2846 25.8541ZM38.4876 25.9943C38.4876 25.9421 38.4778 25.8932 38.4582 25.8476C38.4419 25.8019 38.4125 25.7628 38.3733 25.7269C38.3341 25.6943 38.2818 25.6715 38.2198 25.6519C38.1545 25.6324 38.0793 25.6259 37.9911 25.6259H37.5698L37.3607 26.6627H37.7168C37.8572 26.6627 37.9781 26.6431 38.0761 26.604C38.174 26.5616 38.2524 26.5095 38.3145 26.4443C38.3733 26.3823 38.419 26.3106 38.4451 26.2323C38.4745 26.1541 38.4876 26.0758 38.4876 25.9943ZM42.3092 25.1661C42.3092 25.1792 42.3092 25.1987 42.3059 25.2281C42.3026 25.2542 42.2961 25.2868 42.2928 25.3226C42.2863 25.3552 42.2798 25.3911 42.27 25.4302C42.2602 25.4694 42.2471 25.502 42.234 25.5346C42.221 25.5639 42.2014 25.59 42.1818 25.6128C42.1622 25.6324 42.1426 25.6422 42.1197 25.6422H40.8165L40.6368 26.5323H41.7441C41.7702 26.5323 41.7898 26.5421 41.7996 26.5584C41.8127 26.5779 41.816 26.604 41.816 26.6366C41.816 26.6529 41.816 26.6725 41.8127 26.6986C41.8094 26.7247 41.8062 26.7573 41.7996 26.7931C41.7964 26.8257 41.7866 26.8616 41.7768 26.8975C41.767 26.9333 41.7572 26.9659 41.7408 26.9953C41.7278 27.0246 41.7114 27.0507 41.6918 27.0703C41.6722 27.0866 41.6526 27.0964 41.6298 27.0964H40.5225L40.3167 28.1234H41.6396C41.6624 28.1234 41.6788 28.1332 41.6886 28.156C41.7016 28.1723 41.7082 28.2017 41.7082 28.2408C41.7082 28.2538 41.7049 28.2734 41.7049 28.3027C41.7016 28.3321 41.6984 28.3647 41.6918 28.3973C41.6853 28.4332 41.6788 28.469 41.669 28.5049C41.6592 28.5408 41.6461 28.5734 41.633 28.606C41.62 28.6353 41.6036 28.6614 41.584 28.681C41.5645 28.6973 41.5449 28.707 41.5187 28.707H39.6831C39.6537 28.707 39.6243 28.7038 39.6014 28.694C39.5753 28.6875 39.5557 28.6712 39.5394 28.6516C39.523 28.6321 39.5132 28.6092 39.5067 28.5799C39.5002 28.5505 39.5034 28.5147 39.51 28.4723L40.1469 25.2933C40.1632 25.2118 40.1959 25.1498 40.2481 25.114C40.3004 25.0781 40.3592 25.0585 40.4213 25.0585H42.234C42.283 25.0585 42.3092 25.0944 42.3092 25.1661ZM44.8079 25.3389C44.8079 25.3552 44.8046 25.3781 44.8013 25.4074C44.7981 25.4335 44.7948 25.4661 44.7883 25.4987C44.785 25.5313 44.7752 25.5672 44.7687 25.603C44.7589 25.6356 44.7491 25.6682 44.736 25.6976C44.7229 25.7269 44.7099 25.7498 44.6936 25.7693C44.6772 25.7889 44.6609 25.7987 44.6446 25.7987C44.6184 25.7987 44.5858 25.7856 44.5466 25.7628C44.5074 25.74 44.4584 25.7139 44.3996 25.6846C44.3408 25.6585 44.2755 25.6324 44.1971 25.6096C44.122 25.5835 44.0338 25.5737 43.9358 25.5737C43.8345 25.5737 43.7496 25.5867 43.6777 25.6161C43.6091 25.6422 43.5504 25.6813 43.5046 25.7269C43.4589 25.7726 43.4262 25.8248 43.4066 25.8834C43.3838 25.9389 43.374 25.9976 43.374 26.0562C43.374 26.1215 43.3903 26.1834 43.423 26.2356C43.4589 26.2877 43.5014 26.3334 43.5602 26.379C43.6157 26.4214 43.681 26.4638 43.7529 26.5062C43.8247 26.5486 43.8998 26.591 43.975 26.6366C44.0468 26.679 44.122 26.7312 44.1938 26.7833C44.2657 26.8388 44.331 26.8975 44.3898 26.9692C44.4453 27.0409 44.491 27.1192 44.5237 27.2105C44.5564 27.3018 44.576 27.4094 44.576 27.5267C44.576 27.7028 44.54 27.8658 44.4682 28.0191C44.3963 28.1691 44.2951 28.2995 44.1644 28.4136C44.0305 28.5245 43.8737 28.6125 43.6875 28.6744C43.5014 28.7397 43.2956 28.7723 43.0702 28.7723C42.9461 28.7723 42.835 28.7625 42.7305 28.7397C42.6293 28.7234 42.5345 28.6973 42.4561 28.6679C42.3778 28.6418 42.3092 28.6125 42.2569 28.5799C42.2014 28.5473 42.1589 28.5179 42.1328 28.4919C42.1067 28.4625 42.0936 28.4201 42.0936 28.3647C42.0936 28.3484 42.0969 28.3256 42.1001 28.2962C42.1034 28.2636 42.1099 28.231 42.1165 28.1984C42.123 28.1625 42.1295 28.1267 42.1393 28.0908C42.1491 28.0549 42.1589 28.0191 42.172 27.9897C42.185 27.9604 42.2014 27.9343 42.2177 27.9147C42.234 27.8984 42.2504 27.8887 42.2667 27.8887C42.2994 27.8887 42.3386 27.9017 42.381 27.931C42.4267 27.9604 42.4823 27.993 42.5476 28.0289C42.6129 28.0615 42.6913 28.0973 42.7828 28.1267C42.871 28.156 42.9788 28.1723 43.1061 28.1723C43.2172 28.1723 43.3152 28.156 43.4001 28.1299C43.485 28.1006 43.5536 28.0615 43.6091 28.0126C43.6679 27.9637 43.7104 27.9082 43.7398 27.843C43.7692 27.7811 43.7823 27.7093 43.7823 27.6343C43.7823 27.5626 43.7659 27.5007 43.7333 27.4517C43.6973 27.3963 43.6549 27.3507 43.5993 27.305C43.5438 27.2594 43.4785 27.217 43.4099 27.1779C43.338 27.1387 43.2662 27.0996 43.1943 27.054C43.1192 27.0083 43.0473 26.9594 42.9788 26.9072C42.9069 26.8551 42.8448 26.7931 42.7893 26.7214C42.7338 26.6497 42.6881 26.5714 42.6554 26.4769C42.6195 26.3856 42.6031 26.278 42.6031 26.1573C42.6031 25.9878 42.6358 25.8313 42.7044 25.6878C42.773 25.5476 42.8677 25.4237 42.9853 25.3226C43.1061 25.2183 43.2499 25.14 43.4164 25.0814C43.583 25.0259 43.7692 24.9966 43.9684 24.9966C44.0632 24.9966 44.1546 25.0031 44.2395 25.0161C44.3245 25.0324 44.4029 25.0488 44.4714 25.0716C44.54 25.0911 44.6021 25.1172 44.6511 25.1433C44.7001 25.1694 44.7327 25.1922 44.7523 25.2085C44.7719 25.2281 44.785 25.2476 44.7948 25.2639C44.8013 25.2868 44.8079 25.3096 44.8079 25.3389ZM47.496 25.3389C47.496 25.3552 47.496 25.3781 47.4928 25.4074C47.4895 25.4335 47.4862 25.4661 47.4797 25.4987C47.4732 25.5313 47.4666 25.5672 47.4568 25.603C47.4503 25.6356 47.4372 25.6682 47.4274 25.6976C47.4144 25.7269 47.398 25.7498 47.385 25.7693C47.3686 25.7889 47.3523 25.7987 47.336 25.7987C47.3098 25.7987 47.2772 25.7856 47.2347 25.7628C47.1955 25.74 47.1465 25.7139 47.091 25.6846C47.0322 25.6585 46.9669 25.6324 46.8885 25.6096C46.8101 25.5835 46.7252 25.5737 46.6272 25.5737C46.5259 25.5737 46.4377 25.5867 46.3692 25.6161C46.2973 25.6422 46.2418 25.6813 46.196 25.7269C46.1503 25.7726 46.1176 25.8248 46.0948 25.8834C46.0752 25.9389 46.0621 25.9976 46.0621 26.0562C46.0621 26.1215 46.0817 26.1834 46.1144 26.2356C46.147 26.2877 46.1928 26.3334 46.2516 26.379C46.3071 26.4214 46.3724 26.4638 46.4443 26.5062C46.5161 26.5486 46.5913 26.591 46.6631 26.6366C46.7382 26.679 46.8134 26.7312 46.8852 26.7833C46.9571 26.8388 47.0224 26.8975 47.0779 26.9692C47.1367 27.0409 47.1825 27.1192 47.2151 27.2105C47.2478 27.3018 47.2674 27.4094 47.2674 27.5267C47.2674 27.7028 47.2315 27.8658 47.1596 28.0191C47.0877 28.1691 46.9865 28.2995 46.8558 28.4136C46.7219 28.5245 46.5651 28.6125 46.379 28.6744C46.1928 28.7397 45.987 28.7723 45.7584 28.7723C45.6375 28.7723 45.5265 28.7625 45.4219 28.7397C45.3174 28.7234 45.226 28.6973 45.1476 28.6679C45.0692 28.6418 45.0006 28.6125 44.9451 28.5799C44.8928 28.5473 44.8503 28.5179 44.8242 28.4919C44.7981 28.4625 44.785 28.4201 44.785 28.3647C44.785 28.3484 44.7883 28.3256 44.7915 28.2962C44.7948 28.2636 44.8013 28.231 44.8079 28.1984C44.8144 28.1625 44.8209 28.1267 44.8307 28.0908C44.8405 28.0549 44.8503 28.0191 44.8634 27.9897C44.8765 27.9604 44.8928 27.9343 44.9059 27.9147C44.9222 27.8984 44.9385 27.8887 44.9581 27.8887C44.9908 27.8887 45.0267 27.9017 45.0724 27.931C45.1182 27.9604 45.1704 27.993 45.239 28.0289C45.3043 28.0615 45.3827 28.0973 45.4742 28.1267C45.5624 28.156 45.6702 28.1723 45.7976 28.1723C45.9086 28.1723 46.0066 28.156 46.0915 28.1299C46.1732 28.1006 46.245 28.0615 46.3006 28.0126C46.3594 27.9637 46.4018 27.9082 46.4279 27.843C46.4606 27.7811 46.4737 27.7093 46.4737 27.6343C46.4737 27.5626 46.4573 27.5007 46.4214 27.4517C46.3888 27.3963 46.3463 27.3507 46.2875 27.305C46.2352 27.2594 46.1699 27.217 46.1013 27.1779C46.0295 27.1387 45.9576 27.0996 45.8825 27.054C45.8106 27.0083 45.7388 26.9594 45.6669 26.9072C45.5983 26.8551 45.533 26.7931 45.4807 26.7214C45.4219 26.6497 45.3795 26.5714 45.3468 26.4769C45.3109 26.3856 45.2945 26.278 45.2945 26.1573C45.2945 25.9878 45.3272 25.8313 45.3958 25.6878C45.4644 25.5476 45.5558 25.4237 45.6767 25.3226C45.7976 25.2183 45.9413 25.14 46.1079 25.0814C46.2744 25.0259 46.4606 24.9966 46.6599 24.9966C46.7546 24.9966 46.846 25.0031 46.931 25.0161C47.0159 25.0324 47.091 25.0488 47.1629 25.0716C47.2315 25.0911 47.2935 25.1172 47.3425 25.1433C47.3915 25.1694 47.4242 25.1922 47.4438 25.2085C47.4634 25.2281 47.4764 25.2476 47.4862 25.2639C47.4928 25.2868 47.496 25.3096 47.496 25.3389Z" fill="#ED3237"/>
</g>
<defs>
<clipPath id="clip0_1777_15133">
<rect width="46" height="10" fill="white" transform="translate(1.5 19.2222)"/>
</clipPath>
</defs>
</svg>
