<svg width="48" height="49" viewBox="0 0 48 49" fill="none" xmlns="http://www.w3.org/2000/svg">
<path d="M22.968 22.0625C22.968 22.0625 22.6793 21.5609 23.3328 21.6977C23.3328 21.6977 23.1884 21.4241 22.8465 21.5381C22.8465 21.5381 22.6261 21.6445 22.7629 21.9029C22.7629 21.9029 22.8237 21.9865 22.968 22.0625ZM24.336 26.5995C24.5488 25.0415 23.1276 24.5476 23.1276 24.5476C22.0029 24.122 21.1897 24.9504 21.1897 24.9504C20.0954 24.0612 19.9814 22.2981 19.9814 22.2981L20.2626 22.1765C19.9054 21.9409 20.0574 21.4545 20.0574 21.4545C20.2398 21.6065 20.9009 21.3329 20.9009 21.3329C20.8098 20.9605 21.0225 20.8922 21.0225 20.8922C21.2125 20.8618 22.1549 20.8922 22.1549 20.8922C22.1549 20.5046 22.4361 20.5274 22.4361 20.5274C22.5273 20.6338 22.8769 20.687 22.8769 20.687C23.4468 20.9301 23.4012 20.9681 23.4012 20.9681C23.4316 21.0365 23.4848 21.0061 23.4848 21.0061C23.4772 20.6642 23.8496 20.8086 23.8496 20.8086C23.8876 21.1733 24.8984 21.6521 24.8984 21.6521C25.0503 21.7509 24.8984 21.9333 24.8984 21.9333L25.0579 22.0549H25.2175L25.3011 22.0929L25.7039 22.1309C25.8635 22.1689 25.8255 22.4121 25.8255 22.4121H25.7875V22.4881L25.8255 22.5261C25.8559 22.9289 25.4607 23.172 25.4607 23.172C25.4531 22.9213 25.2631 22.8909 25.2631 22.8909C24.792 22.7693 24.6552 23.3316 24.6552 23.3316C24.602 23.8028 24.9364 23.8104 24.9364 23.8104C25.1263 23.8636 25.3011 23.6508 25.3011 23.6508V23.7344L25.2631 24.0992C25.1643 24.4184 24.7388 24.2968 24.7388 24.2968C24.5488 24.2208 24.5336 24.3348 24.5336 24.3348C24.5564 24.8972 24.8148 25.0947 24.8148 25.0947C25.1187 25.2467 25.0959 25.2923 25.0959 25.2923C25.1643 25.4215 25.0123 25.4899 25.0123 25.4899C24.8756 25.5583 24.8528 25.6495 24.8528 25.6495C24.7996 25.7711 25.0123 26.0067 25.0123 26.0067C25.0959 26.0143 25.1339 26.1663 25.1339 26.1663C25.1111 26.3639 24.9364 26.3639 24.9364 26.3639C24.8832 26.4019 24.7768 26.7287 24.7768 26.7287C24.3588 28.0738 22.9452 28.2638 22.6565 28.2942C22.6869 28.621 22.6869 29.0389 22.5197 29.1833C22.5197 29.1833 22.3449 29.4037 21.9117 29.2593C21.9117 29.2593 22.3525 28.8946 22.2765 27.8914C22.2765 27.8914 22.1473 27.8686 22.0789 27.8534C22.0789 27.8534 21.9801 29.4189 21.1517 29.4569C21.1517 29.4569 20.7794 29.4721 20.6654 29.2593C20.6654 29.2593 21.5621 28.9706 21.8357 27.7698L21.6761 27.6862C21.6761 27.6862 21.0909 29.2289 20.103 29.2517C20.103 29.2517 19.7306 29.3049 19.495 28.849C19.495 28.849 20.6578 28.7654 21.4709 27.5266L21.3113 27.405C21.3113 27.405 20.1106 28.7882 19.0922 28.5678C19.0922 28.5678 18.3855 28.4158 18.4083 27.8078C18.4083 27.8078 19.7914 28.2638 21.1517 27.1618L21.0301 26.9643C21.0301 26.9643 19.5634 27.7166 18.4463 27.5266C18.4463 27.5266 16.9871 27.2454 17.4355 26.2043C17.4355 26.2043 18.9326 27.1922 20.863 26.6831V26.4399C20.863 26.4399 17.5647 26.7211 17.0859 25.0795V24.4716C17.1239 24.3348 17.1999 24.198 17.3139 24.1904C17.3139 24.1904 18.2943 25.6951 20.863 26.1587V25.9611C20.863 25.9611 17.2531 24.7224 17.2379 22.5109C17.2379 22.5109 17.2683 21.5913 18.0055 21.7053C18.0055 21.7053 18.0739 23.8332 20.9465 25.6799L21.0301 25.5203C21.0301 25.5203 18.3247 23.818 18.3703 20.6186C18.3703 20.6186 18.5299 18.9922 19.7382 19.5318C19.7382 19.5318 18.9402 22.9212 21.2277 25.1935C21.2277 25.1935 21.5621 24.5704 22.5197 24.5932C22.5197 24.5932 24.0016 24.5324 24.1764 26.1587C24.1764 26.1587 24.3056 27.7318 22.6033 27.8838C22.6033 27.8838 22.6185 27.9598 22.6337 28.0814C24.0852 28.0206 24.336 26.5995 24.336 26.5995ZM24.6552 22.3817L24.8148 22.0625L24.7388 22.1005H24.4576V22.1841L24.6552 22.3817Z" fill="#EC1D24"/>
<path d="M17.0932 24.5171V25.1251C17.0628 25.0263 17.0476 24.9123 17.04 24.7983C17.04 24.7907 17.0476 24.6539 17.0932 24.5171Z" fill="#EC1D24"/>
<path d="M45.3637 22.9592C45.8425 22.9592 46.3212 22.9592 46.8 22.9592C46.3972 24.3804 45.9793 25.7863 45.5005 27.1314C45.0217 27.101 44.4213 27.1922 44.0186 27.0858C44.4669 25.7179 44.7937 24.2208 45.3637 22.9592Z" fill="#EC2127"/>
<path d="M40.082 26.0219C39.9528 24.0764 44.163 22.8756 44.1098 25.5583C43.2435 25.7711 42.3771 25.9915 41.5183 26.2042C42.0123 26.8578 43.0611 26.3106 43.745 26.2042C43.4335 27.3594 40.1884 27.671 40.082 26.0219ZM42.7191 25.3683C42.4987 24.7299 41.4348 25.1555 41.4196 25.6951C41.8983 25.6343 42.2783 25.4671 42.7191 25.3683Z" fill="#EC2127"/>
<path d="M40.4545 24.0764C40.3329 24.5247 39.9985 24.7603 39.8085 25.1403C38.623 24.5171 37.9618 26.569 39.5274 26.0219C39.6033 26.3334 39.7097 26.6146 39.7097 26.9946C38.5242 27.4658 36.6547 27.0174 37.1183 25.5127C37.4299 24.4715 39.0562 23.7648 40.4545 24.0764Z" fill="#EC2127"/>
<path d="M37.4373 24.3499C37.4145 24.6691 36.9738 24.9579 36.7914 25.2771C35.7426 25.0491 36.001 26.5234 35.5906 27.0858C35.1119 27.0858 34.6331 27.0858 34.1543 27.0858C34.4127 26.0599 34.7775 25.1479 35.0359 24.122C35.9098 24.2892 36.9434 23.742 37.4373 24.3499Z" fill="#EC2127"/>
<path d="M32.4829 23.9776C33.106 23.932 33.6684 24.274 34.5196 24.2512C34.3752 25.1403 33.942 26.1435 33.6836 27.0782C33.22 27.0782 32.7564 27.0782 32.2929 27.0782C32.4297 26.3335 32.764 25.7863 32.8476 24.9959C32.1181 24.3804 31.3505 25.6343 31.6393 26.3411C31.8141 26.4095 32.1561 26.4095 32.3309 26.3411C32.2397 27.1542 30.6741 27.4734 30.431 26.5767C30.3778 25.1479 31.2745 24.0764 32.4829 23.9776Z" fill="#EC2127"/>
<path d="M30.1645 24.6768C30.8712 26.1815 28.8649 27.6939 27.3374 26.9947C27.1398 27.3519 27.0562 27.8306 26.9194 28.2486C26.4255 28.2486 25.9315 28.2486 25.4375 28.2486C25.8859 26.8579 26.2811 25.414 26.7826 24.0764C28.067 24.16 29.6705 23.6205 30.1645 24.6768ZM27.573 26.2043C28.5153 26.7819 29.5261 25.376 28.8725 24.8136C28.1506 24.198 27.5806 25.6192 27.573 26.2043Z" fill="#EC2127"/>
<path d="M15.5661 24.4413C16.0981 25.2089 15.3077 26.1892 15.1937 27.0784C14.6998 27.0784 14.2058 27.0784 13.7118 27.0784C13.7954 26.4248 14.0918 25.9764 14.1754 25.3152C14.1222 25.0873 13.6206 25.1709 13.4306 25.2241C13.1038 25.7332 13.0278 26.4856 12.7847 27.0784C12.2907 27.0784 11.7967 27.0784 11.3027 27.0784C11.5991 26.0828 11.9107 25.0949 12.2299 24.1145C13.4078 24.4261 14.8898 23.4685 15.5661 24.4413Z" fill="#EC2127"/>
<path d="M11.3936 24.996C11.6216 26.5995 9.03008 27.7927 7.78374 26.8503C7.20617 26.4171 7.26697 25.4292 7.78374 24.8592C8.17892 24.4184 8.80969 24.084 9.68365 24.0232C10.5044 23.97 11.272 24.1752 11.3936 24.996ZM8.7033 25.7408C8.79449 26.4247 10.2764 26.0751 10.0484 25.3228C9.96483 25.0492 9.66845 25.034 9.35686 25.0948C8.90849 25.1708 8.6577 25.3608 8.7033 25.7408Z" fill="#EC2127"/>
<path d="M5.97501 24.1221C6.46898 24.1221 6.96296 24.1221 7.45693 24.1221C7.19095 25.1404 6.83376 26.06 6.57538 27.0859C6.0662 27.0859 5.55703 27.0859 5.04785 27.0859C5.35944 26.098 5.65582 25.0948 5.97501 24.1221Z" fill="#EC2127"/>
<path d="M6.75779 22.6857C8.27011 22.3209 7.87493 23.932 6.66659 23.8408C5.78504 23.78 5.96743 22.8757 6.75779 22.6857Z" fill="#EC2127"/>
<path d="M4.91107 25.7864C4.79707 26.2956 4.67548 26.7819 4.40189 27.1315C3.07196 27.0099 1.27845 27.5647 1.20245 26.25C1.14925 25.2544 2.05361 24.0157 2.2208 23.0961C2.2208 23.0201 2.2588 22.9745 2.31199 22.9593C2.80597 22.9897 3.42154 22.8985 3.83952 23.0049C3.62673 23.9093 3.11755 24.7528 3.04916 25.642C3.48234 25.8852 4.40189 25.6268 4.91107 25.7864Z" fill="#EC2127"/>
</svg>
