<svg width="48" height="49" viewBox="0 0 48 49" fill="none" xmlns="http://www.w3.org/2000/svg">
<g clip-path="url(#clip0_1777_15096)">
<path d="M4.04722 26.4025C4.04722 25.8239 4.03711 25.3395 4.00586 24.9062H5.10003L5.15196 25.6497H5.18229C5.42998 25.2573 5.88401 24.7922 6.73048 24.7922C7.3913 24.7922 7.90691 25.1645 8.12381 25.7214H8.14495C8.3205 25.4429 8.52637 25.2361 8.76349 25.0923C9.04244 24.8956 9.3632 24.7922 9.7754 24.7922C10.6118 24.7922 11.4573 25.3598 11.4573 26.9709V29.9322H10.2189V27.1556C10.2189 26.3202 9.92981 25.8239 9.32092 25.8239C8.88757 25.8239 8.56727 26.1345 8.43354 26.4957C8.39633 26.6336 8.37551 26.7753 8.3715 26.9181V29.9327H7.13304V27.021C7.13304 26.3207 6.85456 25.8244 6.26589 25.8244C5.7921 25.8244 5.47226 26.1966 5.35737 26.5468C5.30636 26.6708 5.28522 26.816 5.28522 26.9594V29.9327H4.04722V26.4025ZM16.283 28.7254C16.283 29.179 16.3037 29.6225 16.3547 29.9327H15.209L15.1268 29.3757H15.0955C14.7858 29.7681 14.2592 30.0457 13.6103 30.0457C12.5984 30.0457 12.0308 29.3137 12.0308 28.5494C12.0308 27.2788 13.1549 26.64 15.0137 26.6501V26.5679C15.0137 26.237 14.8791 25.6902 13.9912 25.6902C13.4954 25.6902 12.9798 25.8455 12.6393 26.0615L12.3916 25.2357C12.7633 25.0082 13.4136 24.7918 14.2077 24.7918C15.8184 24.7918 16.2834 25.8147 16.2834 26.9075L16.283 28.7254ZM15.044 27.4769C14.1456 27.4557 13.2895 27.6519 13.2895 28.4157C13.2895 28.9111 13.6103 29.1386 14.0124 29.1386C14.5174 29.1386 14.8896 28.8072 15.0031 28.4465C15.0309 28.3563 15.0449 28.2624 15.0445 28.168V27.4769H15.044ZM17.1598 26.4025C17.1598 25.8239 17.1492 25.3395 17.1193 24.9062H18.2328L18.2944 25.6608H18.3256C18.5421 25.2678 19.0894 24.7922 19.9253 24.7922C20.803 24.7922 21.7106 25.3598 21.7106 26.9502V29.9322H20.4414V27.0945C20.4414 26.3721 20.1725 25.8234 19.4814 25.8234C18.9763 25.8234 18.6243 26.1851 18.4906 26.5674C18.4493 26.6805 18.4391 26.8358 18.4391 26.9792V29.9317H17.1593L17.1598 26.4025ZM27.215 22.887V28.5186C27.215 29.0347 27.2361 29.5931 27.2564 29.9327H26.1218L26.0698 29.1386H26.0487C25.75 29.6955 25.1402 30.0462 24.4081 30.0462C23.2106 30.0462 22.2616 29.0246 22.2616 27.4773C22.2506 25.7945 23.3029 24.7927 24.5115 24.7927C25.2027 24.7927 25.6981 25.0817 25.9251 25.4549H25.9467V22.8874H27.2155V22.887H27.215ZM25.9462 27.0012C25.9462 26.8988 25.9361 26.7747 25.915 26.6708C25.8015 26.1764 25.3998 25.7733 24.8213 25.7733C24.006 25.7733 23.5511 26.4962 23.5511 27.435C23.5511 28.3528 24.0056 29.0241 24.8111 29.0241C25.3263 29.0241 25.7808 28.6726 25.9044 28.1257C25.9356 28.0127 25.9467 27.8882 25.9467 27.7544V27.0012H25.9462ZM28.113 29.9327V24.9062H29.3937V29.9327H28.113ZM30.2907 26.527C30.2907 25.846 30.2811 25.3602 30.2503 24.9066H31.3546L31.395 25.8657H31.4368C31.6845 25.1539 32.2723 24.9066 32.8104 24.9066C32.934 24.9066 33.0057 24.8855 33.1086 24.9066V26.022C32.9868 25.995 32.8625 25.9811 32.7378 25.9806C32.1275 25.9806 31.7148 26.373 31.6018 26.9397C31.5768 27.0694 31.5631 27.201 31.5609 27.333V29.9331H30.2907V26.527ZM33.6978 29.9327V24.9062H34.9767V29.9327H33.6978Z" fill="#0D2B5B"/>
<path d="M42.9433 19.5902C42.3096 18.8674 41.6359 19.1946 41.1005 19.4606C40.8754 19.5719 39.25 20.4932 39.25 20.4932C38.3594 20.8604 37.6659 20.4597 37.3939 20.1224C37.3679 20.0904 37.3443 20.0564 37.3236 20.0208L37.2602 19.911C37.153 19.7256 37.0338 19.5474 36.9035 19.3775C36.8245 19.2745 36.7388 19.1767 36.6471 19.0847C36.0378 18.4694 35.064 18.0388 33.4363 18.821C32.6656 19.2676 30.1552 20.7019 30.1552 20.7019C29.2117 21.0902 28.4902 20.6173 28.2559 20.2704C28.2453 20.2574 28.2361 20.2434 28.2283 20.2285L28.1975 20.1761L28.0385 19.916C27.9668 19.8021 27.8898 19.6915 27.8078 19.5847C27.728 19.4824 27.6422 19.3848 27.5509 19.2924C26.9457 18.6808 25.977 18.2511 24.3636 19.0186C23.388 19.5755 21.1187 20.8728 21.1187 20.8728L21.1178 20.8737L19.457 21.8227L20.3164 22.8778C20.678 23.2225 21.3577 23.7877 22.4091 23.3111C22.4091 23.3111 25.3111 21.6306 25.3226 21.6255C27.8037 20.2639 29.0279 21.5649 29.5693 22.432C29.5881 22.4592 29.6033 22.4886 29.6203 22.5148L29.6212 22.5161C29.6281 22.5267 29.6322 22.5364 29.6382 22.5465L29.6993 22.6466C29.9631 23.0464 30.379 23.3047 30.8748 23.2928C31.1482 23.2872 31.3339 23.1981 31.6041 23.0478L34.4119 21.4192L34.4179 21.4165C36.9302 20.0383 38.1751 21.4243 38.7068 22.2914C38.7481 22.3663 38.795 22.438 38.8433 22.5046C39.1066 22.8617 39.4696 23.0956 39.931 23.0841C40.2357 23.0782 40.5771 22.8953 40.6281 22.8617L43.9943 20.9188C43.9952 20.9197 43.6515 20.3999 42.9433 19.5902Z" fill="#FDD213"/>
</g>
<defs>
<clipPath id="clip0_1777_15096">
<rect width="40" height="11.648" fill="white" transform="translate(4 18.3982)"/>
</clipPath>
</defs>
</svg>
