<svg width="40" height="40" viewBox="0 0 40 40" fill="none" xmlns="http://www.w3.org/2000/svg">
  <path fill-rule="evenodd" clip-rule="evenodd" d="M14.9306 16.8172C14.2904 16.8172 13.7159 17.2313 13.312 17.7111V16.9135H11.6074V22.4399H13.3966V19.6417C13.3966 18.6822 13.8384 18.2768 14.4129 18.2768C14.9306 18.2768 15.2513 18.6282 15.2513 19.4608V22.4399H17.0405V19.3865C17.0405 17.5959 16.1277 16.8172 14.932 16.8172H14.9306ZM27.7346 21.7108V22.7373C27.7346 22.7373 27.7521 23.8032 26.622 23.5393H26.6206L26.5156 24.9931C26.7357 25.0383 29.4829 25.5574 29.4829 23.0027L29.5223 21.7122V16.9149H27.7331V21.7122L27.7346 21.7108ZM19.0542 16.2748C19.7133 16.2748 20.1464 15.8053 20.1464 15.1666C20.1464 14.5585 19.7133 14.1211 19.0542 14.1211C18.3951 14.1211 17.962 14.5906 17.962 15.1987C17.962 15.8067 18.3951 16.2762 19.0542 16.2762V16.2748ZM18.1604 22.4413H19.9495V16.9149H18.1604V22.4413ZM24.4304 16.8187C23.7903 16.8187 23.2158 17.2328 22.8119 17.7125V16.9149H21.1073V22.4413H22.8964V19.6431C22.8964 18.6837 23.3383 18.2783 23.9128 18.2783C24.4304 18.2783 24.7512 18.6297 24.7512 19.4623V22.4413H26.5404V19.3879C26.5404 17.5973 25.6276 16.8187 24.4319 16.8187H24.4304ZM28.6299 16.2748C29.289 16.2748 29.722 15.8053 29.722 15.1666C29.722 14.5585 29.289 14.1211 28.6299 14.1211C27.9708 14.1211 27.5377 14.5906 27.5377 15.1987C27.5377 15.8067 27.9708 16.2762 28.6299 16.2762V16.2748ZM33.0073 16.7545C32.2067 16.7545 31.1087 17.1657 30.5736 17.6746L31.4893 18.6603C31.8378 18.3512 32.303 18.1325 32.7929 18.1325C33.4987 18.1325 33.8092 18.3862 33.837 18.9724L32.3613 19.1211C30.788 19.28 30.3053 19.9668 30.3053 21.0327C30.3053 21.7866 31.0752 22.5813 32.2986 22.5813C32.8775 22.5813 33.6547 22.3582 33.9084 21.8026V22.4442H35.5751L35.5838 19.3471C35.5882 17.5128 34.6652 16.7531 33.0087 16.7531L33.0073 16.7545ZM32.7812 21.3696C32.3569 21.3696 32.0041 21.1319 32.0041 20.7907C32.0041 20.4393 32.3686 20.1433 32.9416 20.1039L33.9113 20.0383L33.9099 20.5297C33.6999 21.2281 33.1764 21.3696 32.7798 21.3696H32.7812Z" fill="#E41E26"/>
  <path fill-rule="evenodd" clip-rule="evenodd" d="M13.9881 25.5994L13.1438 24.4038L13.9546 23.2591H13.2809L12.807 23.9415L12.3448 23.2591H11.6346L12.4454 24.4213L11.6055 25.6009H12.2952L12.7895 24.8835L13.2678 25.6009H13.9852L13.9881 25.5994ZM15.5862 23.2241C15.2946 23.2241 15.0584 23.3247 14.9009 23.5289V23.2591H14.2972V26.4437H14.9301V25.3516C15.0919 25.5426 15.315 25.6344 15.5877 25.6344C16.2001 25.6344 16.674 25.1649 16.674 24.43C16.674 23.6951 16.2001 23.2256 15.5877 23.2256L15.5862 23.2241ZM15.4769 25.0774C15.1604 25.0774 14.9213 24.8339 14.9213 24.4285C14.9213 24.0246 15.1604 23.7797 15.4769 23.7797C15.7933 23.7797 16.0324 24.0232 16.0324 24.4285C16.0324 24.8325 15.7933 25.0774 15.4769 25.0774ZM17.6991 23.5682V23.2591H17.0954V25.5994H17.7283V24.4942C17.7283 24.0465 17.9601 23.8409 18.3086 23.8409C18.3567 23.8409 18.3975 23.8453 18.45 23.8497V23.2227C18.1132 23.2227 17.8537 23.3408 17.6991 23.5668V23.5682ZM20.9435 24.4388C20.9435 23.6863 20.4492 23.2256 19.8076 23.2256C19.1427 23.2256 18.644 23.7301 18.644 24.43C18.644 25.1255 19.1354 25.6344 19.8892 25.6344C20.2829 25.6344 20.5862 25.5032 20.7889 25.2553L20.4521 24.8631C20.3019 25.0147 20.1357 25.0891 19.9053 25.0891C19.5728 25.0891 19.341 24.9112 19.2812 24.6196H20.9318C20.9362 24.5627 20.9435 24.4883 20.9435 24.4373V24.4388ZM19.812 23.7388C20.0963 23.7388 20.3033 23.9299 20.3471 24.2259H19.2724C19.3176 23.9255 19.5232 23.7388 19.812 23.7388ZM22.0998 25.6359C22.753 25.6359 23.1292 25.3268 23.1292 24.8922C23.1292 23.9692 21.8111 24.3571 21.8111 23.9576C21.8111 23.8351 21.9321 23.7403 22.2164 23.7403C22.4148 23.7403 22.6306 23.784 22.8449 23.9138L23.0563 23.4312C22.8493 23.2999 22.5168 23.227 22.2164 23.227C21.5792 23.227 21.2059 23.5405 21.2059 23.9838C21.2059 24.9185 22.5241 24.5262 22.5241 24.9097C22.5241 25.041 22.4148 25.1226 22.1231 25.1226C21.8548 25.1226 21.5588 25.0308 21.3649 24.8966L21.1535 25.3836C21.3561 25.5265 21.7294 25.6359 22.0983 25.6359H22.0998ZM24.2535 25.6359C24.9067 25.6359 25.2829 25.3268 25.2829 24.8922C25.2829 23.9692 23.9648 24.3571 23.9648 23.9576C23.9648 23.8351 24.0858 23.7403 24.3701 23.7403C24.5684 23.7403 24.7843 23.784 24.9986 23.9138L25.21 23.4312C25.003 23.2999 24.6705 23.227 24.3701 23.227C23.7329 23.227 23.3596 23.5405 23.3596 23.9838C23.3596 24.9185 24.6778 24.5262 24.6778 24.9097C24.6778 25.041 24.5684 25.1226 24.2768 25.1226C24.0085 25.1226 23.7125 25.0308 23.5186 24.8966L23.3071 25.3836C23.5098 25.5265 23.8831 25.6359 24.252 25.6359H24.2535Z" fill="black"/>
  <path fill-rule="evenodd" clip-rule="evenodd" d="M7.15215 13.332C8.89318 13.332 10.3032 14.7435 10.3032 16.4831C10.3032 16.5239 10.3018 16.5648 10.3003 16.6056C10.3003 16.6114 10.3003 16.6187 10.3003 16.6245C10.2901 16.8637 10.2522 17.097 10.1909 17.3186C10.0218 18.0098 9.59601 19.1165 8.53156 20.5426C7.9308 21.349 7.48169 22.5126 7.15069 23.7214C6.81823 22.5126 6.37058 21.349 5.76982 20.5426C4.64267 19.0305 4.23147 17.8771 4.08274 17.1991C4.06232 17.113 4.04628 17.0255 4.03316 16.9366C3.99087 16.6552 4.00108 16.5064 4.00108 16.5064C4.00108 16.4991 4.00108 16.4918 4.00108 16.4846C4.00108 14.7435 5.41257 13.3335 7.15215 13.3335V13.332ZM7.15215 13.9109C8.57239 13.9109 9.72433 15.0629 9.72433 16.4831C9.72433 17.9033 8.57239 19.0553 7.15215 19.0553C5.73191 19.0553 4.57997 17.9033 4.57997 16.4831C4.57997 15.0629 5.73191 13.9109 7.15215 13.9109Z" fill="#E41E26"/>
  <path fill-rule="evenodd" clip-rule="evenodd" d="M7.15118 14.207C8.4081 14.207 9.42735 15.2263 9.42735 16.4832C9.42735 17.7401 8.4081 18.7594 7.15118 18.7594C5.89425 18.7594 4.875 17.7401 4.875 16.4832C4.875 15.2263 5.89425 14.207 7.15118 14.207Z" fill="black"/>
  <path fill-rule="evenodd" clip-rule="evenodd" d="M6.00665 15.5117H8.29886C8.73048 15.5117 9.08481 15.8646 9.08481 16.2977C9.08481 16.7293 8.73193 17.0836 8.29886 17.0836H6.00665C5.57503 17.0836 5.2207 16.7307 5.2207 16.2977C5.2207 15.866 5.57358 15.5117 6.00665 15.5117ZM6.17871 15.8442C6.42951 15.8442 6.63219 16.0469 6.63219 16.2977C6.63219 16.5485 6.42951 16.7511 6.17871 16.7511C5.92791 16.7511 5.72522 16.5485 5.72522 16.2977C5.72522 16.0469 5.92791 15.8442 6.17871 15.8442ZM8.1268 15.8442C8.3776 15.8442 8.58029 16.0469 8.58029 16.2977C8.58029 16.5485 8.3776 16.7511 8.1268 16.7511C7.876 16.7511 7.67332 16.5485 7.67332 16.2977C7.67332 16.0469 7.876 15.8442 8.1268 15.8442ZM8.14284 15.8967C8.25074 15.8967 8.33969 15.9842 8.33969 16.0935C8.33969 16.2014 8.2522 16.2904 8.14284 16.2904C8.03494 16.2904 7.94599 16.2029 7.94599 16.0935C7.94599 15.9856 8.03348 15.8967 8.14284 15.8967ZM6.19475 15.8967C6.30265 15.8967 6.3916 15.9842 6.3916 16.0935C6.3916 16.2014 6.30411 16.2904 6.19475 16.2904C6.08685 16.2904 5.9979 16.2029 5.9979 16.0935C5.9979 15.9856 6.08539 15.8967 6.19475 15.8967Z" fill="white"/>
  <path d="M7.96074 22.3218L9.36349 23.185V23.3308V25.2468V25.362L9.26579 25.4203L7.15147 26.6671L5.03715 25.4203L4.93945 25.362V25.2468V23.185L5.10277 23.0844L6.34074 22.3218C6.39323 22.437 6.44427 22.5551 6.49384 22.6761L5.49647 23.29L6.52738 23.9243L7.15293 24.2932L7.78139 23.9228L8.80939 23.29L7.81055 22.6746C7.86013 22.5551 7.91117 22.437 7.96366 22.3203L7.96074 22.3218ZM6.95899 24.6388L6.95024 24.6344L5.32295 23.6749V25.1316L6.95754 26.0955V24.6388H6.95899Z" fill="black"/>
</svg>
