<svg width="48" height="49" viewBox="0 0 48 49" fill="none" xmlns="http://www.w3.org/2000/svg">
<g clip-path="url(#clip0_1777_15023)">
<path fill-rule="evenodd" clip-rule="evenodd" d="M16.5794 27.6552C15.5632 28.5942 14.2098 29.1101 12.808 29.0927C11.3991 29.1133 10.0379 28.5974 9.01511 27.6552C8.5339 27.2015 8.15131 26.6585 7.89004 26.0583C7.62877 25.4582 7.49414 24.8131 7.49414 24.1614C7.49414 23.5097 7.62877 22.8647 7.89004 22.2645C8.15131 21.6644 8.5339 21.1213 9.01511 20.6677C10.0366 19.7198 11.4004 19.2005 12.8123 19.2218C14.2141 19.2044 15.5675 19.7202 16.5837 20.6593C17.0654 21.1127 17.4485 21.6556 17.7101 22.2558C17.9717 22.856 18.1065 23.5012 18.1065 24.1531C18.1065 24.8049 17.9717 25.4501 17.7101 26.0503C17.4485 26.6505 17.0654 27.1934 16.5837 27.6468L16.5794 27.6552ZM12.8123 20.8302C12.3648 20.826 11.9211 20.9099 11.5079 21.077C11.0947 21.2441 10.7206 21.4909 10.4082 21.8024C10.0958 22.1139 9.85158 22.4837 9.69022 22.8895C9.52887 23.2953 9.45375 23.7287 9.4694 24.1635C9.4694 24.5892 9.55564 25.0107 9.72321 25.404C9.89077 25.7973 10.1364 26.1547 10.446 26.4557C10.7556 26.7567 11.1232 26.9955 11.5277 27.1584C11.9322 27.3213 12.3658 27.4052 12.8037 27.4052C13.2416 27.4052 13.6751 27.3213 14.0797 27.1584C14.4842 26.9955 14.8518 26.7567 15.1614 26.4557C15.471 26.1547 15.7166 25.7973 15.8842 25.404C16.0517 25.0107 16.138 24.5892 16.138 24.1635C16.1536 23.7301 16.079 23.2981 15.9187 22.8934C15.7584 22.4887 15.5156 22.1197 15.2051 21.8084C14.8945 21.4972 14.5225 21.2501 14.1113 21.082C13.7002 20.9139 13.2583 20.8282 12.8123 20.8302ZM29.098 20.3843L25.0223 29.2218L24.7908 29.1802C23.6251 28.976 23.3894 28.6927 22.8451 27.5427L19.7894 21.0718H18.6408V19.501H22.9823V21.0718H21.9451L24.4008 26.426L26.7837 21.0718H25.498V19.501H29.098V20.3843ZM38.9551 27.6552C37.9258 28.5793 36.5762 29.0925 35.1751 29.0925C33.774 29.0925 32.4244 28.5793 31.3951 27.6552C30.9139 27.2015 30.5313 26.6585 30.27 26.0583C30.0088 25.4582 29.8741 24.8131 29.8741 24.1614C29.8741 23.5097 30.0088 22.8647 30.27 22.2645C30.5313 21.6644 30.9139 21.1213 31.3951 20.6677C32.4244 19.7435 33.774 19.2303 35.1751 19.2303C36.5762 19.2303 37.9258 19.7435 38.9551 20.6677C39.4379 21.1204 39.822 21.6632 40.0843 22.2634C40.3465 22.8637 40.4817 23.5092 40.4817 24.1614C40.4817 24.8136 40.3465 25.4591 40.0843 26.0594C39.822 26.6596 39.4379 27.2024 38.9551 27.6552ZM35.2051 20.8302C34.7574 20.826 34.3135 20.9099 33.9001 21.077C33.4867 21.244 33.1124 21.4907 32.7996 21.8022C32.4869 22.1136 32.2423 22.4834 32.0804 22.8892C31.9186 23.295 31.8429 23.7285 31.858 24.1635C31.858 24.5892 31.9442 25.0107 32.1118 25.404C32.2793 25.7973 32.5249 26.1547 32.8346 26.4557C33.1442 26.7567 33.5118 26.9955 33.9163 27.1584C34.3208 27.3213 34.7544 27.4052 35.1923 27.4052C35.6301 27.4052 36.0637 27.3213 36.4682 27.1584C36.8728 26.9955 37.2403 26.7567 37.55 26.4557C37.8596 26.1547 38.1052 25.7973 38.2727 25.404C38.4403 25.0107 38.5265 24.5892 38.5265 24.1635C38.5427 23.7303 38.4687 23.2984 38.3088 22.8937C38.149 22.4891 37.9067 22.12 37.5965 21.8086C37.2863 21.4973 36.9145 21.2501 36.5036 21.082C36.0926 20.9138 35.651 20.8282 35.2051 20.8302Z" fill="#4B2489"/>
</g>
<defs>
<clipPath id="clip0_1777_15023">
<rect width="33" height="10" fill="white" transform="translate(7.5 19.2222)"/>
</clipPath>
</defs>
</svg>
