<svg width="48" height="49" viewBox="0 0 48 49" fill="none" xmlns="http://www.w3.org/2000/svg">
<g clip-path="url(#clip0_1777_15069)">
<path fill-rule="evenodd" clip-rule="evenodd" d="M15.8826 16.9646L15.8633 17.3376L23.0785 25.7267L23.3377 25.768L23.3704 25.7517L23.497 25.52L20.4198 15.3118L19.8976 14.9629L15.8826 16.9646Z" fill="#0096B8"/>
<path fill-rule="evenodd" clip-rule="evenodd" d="M23.0785 25.7267L23.3374 25.768L18.0165 17.7449L15.8633 17.3376L23.0785 25.7267Z" fill="#005675"/>
<path fill-rule="evenodd" clip-rule="evenodd" d="M19.898 14.9629L18.0586 17.1091L18.8098 17.4346L20.4203 15.3121V15.3118L19.898 14.9629Z" fill="#0BBBEF"/>
<path fill-rule="evenodd" clip-rule="evenodd" d="M18.8086 17.4346L23.3703 25.7517L23.497 25.5193L20.4201 15.3125L18.8086 17.4346Z" fill="#007290"/>
<path fill-rule="evenodd" clip-rule="evenodd" d="M27.0556 14.9847L23.9697 28.7898L24.0785 29.0488L24.1302 29.0719L24.4797 28.9812L32.1363 17.4862L32.1278 16.8865L27.462 14.7605L27.0556 14.9847Z" fill="#81B73E"/>
<path fill-rule="evenodd" clip-rule="evenodd" d="M29.0282 17.749L24.1309 29.072L24.4794 28.9813L32.1364 17.4863L29.0282 17.749Z" fill="#69931D"/>
<path fill-rule="evenodd" clip-rule="evenodd" d="M23.9688 28.7891L24.0779 29.0481L28.1466 17.2682L27.0546 14.9851L23.9688 28.7891Z" fill="#277933"/>
<path fill-rule="evenodd" clip-rule="evenodd" d="M32.1271 16.887L28.8516 16.9289L29.0281 17.7491L32.1359 17.4863L32.1275 16.887H32.1271Z" fill="#AECC53"/>
<path fill-rule="evenodd" clip-rule="evenodd" d="M27.0557 14.9847L28.1466 17.2675L28.852 16.929L27.4621 14.761L27.0557 14.9847Z" fill="#69931D"/>
<path fill-rule="evenodd" clip-rule="evenodd" d="M26.494 11.072L20.5212 11.1358L20.335 11.4902L23.6352 20.9176L23.8312 21.0483L23.8369 21.0492L24.0187 20.9451L26.8801 11.4687L26.494 11.072Z" fill="#E4032E"/>
<path fill-rule="evenodd" clip-rule="evenodd" d="M20.335 11.4901L23.6352 20.9176L23.8301 21.0484L22.6494 12.6315L20.335 11.4897V11.4901Z" fill="#791B15"/>
<path fill-rule="evenodd" clip-rule="evenodd" d="M23.7725 12.633L23.837 21.0491L24.0187 20.9443L26.8799 11.4688L23.7725 12.633Z" fill="#B51227"/>
<path fill-rule="evenodd" clip-rule="evenodd" d="M29.8095 36.7655C29.8134 36.685 29.818 36.5567 29.8219 36.3814V33.0079L29.8115 32.6807C29.8089 32.6113 29.8058 32.5641 29.8024 32.5388C29.799 32.5125 29.7937 32.49 29.7864 32.4695C29.7621 32.3865 29.7089 32.3276 29.629 32.292C29.555 32.2593 29.4455 32.2436 29.3037 32.2425V32.1281L31.1369 32.1274C31.4036 32.1286 31.6442 32.1465 31.859 32.1832C32.074 32.2189 32.247 32.2687 32.3795 32.3323C32.7625 32.5235 32.9519 32.8452 32.9497 33.302C32.9545 33.9561 32.5452 34.3732 31.6981 34.4809L31.5561 34.505C31.7466 34.5124 32.004 34.5786 32.124 34.608C32.243 34.6369 32.3595 34.6826 32.474 34.7451C32.9234 34.9825 33.1449 35.3617 33.1404 35.8871C33.1426 36.5244 32.847 36.9382 32.2467 37.1341C32.1158 37.1736 31.9512 37.2045 31.7525 37.2272C31.5529 37.2498 31.3368 37.2613 31.103 37.2618H29.3037V37.1468C29.5158 37.144 29.6614 37.11 29.726 37.0302C29.7527 37.0034 29.7719 36.9734 29.7845 36.9392C29.7974 36.9047 29.8053 36.8452 29.8095 36.7655ZM30.3739 32.2856V34.4263H31.0893C31.9212 34.421 32.352 34.0581 32.3565 33.331C32.3624 32.6249 31.9086 32.2804 31.028 32.2856H30.3739ZM32.5 35.8293C32.4949 35.3309 32.3235 34.9778 31.9811 34.7803C31.8771 34.725 31.7452 34.6821 31.5864 34.6515C31.4282 34.6211 31.2531 34.6059 31.062 34.6054H30.3739V37.1043H31.062C31.5606 37.1064 31.925 37.0086 32.1495 36.8038C32.2631 36.705 32.3495 36.572 32.4095 36.4044C32.4692 36.237 32.4989 36.0447 32.5 35.8293Z" fill="black"/>
<path fill-rule="evenodd" clip-rule="evenodd" d="M35.7637 37.1154C35.7265 37.0382 35.7003 36.9462 35.6893 36.7108L35.6858 36.6416L35.6417 36.6942C35.5893 36.7555 35.5378 36.8101 35.4878 36.8559C35.4371 36.902 35.3782 36.9494 35.3124 36.9971C35.1678 37.1091 35.0283 37.1878 34.8947 37.2335C34.7609 37.2793 34.6104 37.3014 34.4425 37.2997C34.15 37.3014 33.9255 37.2283 33.7651 37.0849C33.6757 37.0003 33.6049 36.8937 33.5532 36.7644C33.5022 36.6352 33.4757 36.4966 33.4746 36.3474C33.4778 35.7979 33.7986 35.4439 34.4553 35.2867C34.6289 35.2443 34.8124 35.2095 35.0055 35.1827C35.1988 35.1554 35.4186 35.1329 35.6638 35.1155L35.6893 34.6365C35.6893 34.4726 35.682 34.3396 35.6668 34.2387C35.6515 34.1365 35.6263 34.0471 35.5907 33.9719C35.4935 33.7724 35.2948 33.6768 35.0079 33.6768C34.5474 33.674 34.298 33.9047 34.272 34.3622C34.2696 34.4352 34.2631 34.4868 34.2538 34.5172C34.2451 34.5466 34.2301 34.5681 34.209 34.5839C34.1631 34.6165 34.0901 34.6349 33.9856 34.6365C33.7597 34.6396 33.6752 34.5693 33.6789 34.4505C33.6804 34.3265 33.7197 34.2063 33.7981 34.0906C33.8772 33.9745 33.9868 33.8732 34.1286 33.7876C34.3835 33.639 34.7099 33.5633 35.1102 33.5616C35.5483 33.5633 35.8421 33.6672 36.0025 33.8669C36.0675 33.9505 36.1156 34.0544 36.1467 34.18C36.1782 34.305 36.194 34.4642 36.1937 34.6574L36.1931 34.6979L36.1896 34.8854L36.1801 35.3804L36.1732 36.0605L36.1664 36.3899C36.1672 36.5449 36.1732 36.663 36.1837 36.7954C36.1935 36.9241 36.2374 37.068 36.3356 37.1059C36.4376 37.1458 36.5361 37.1615 36.7235 37.1627C36.8611 37.1601 36.967 37.1432 37.0388 37.1112C37.1205 37.075 37.1711 36.9971 37.1929 36.8869C37.214 36.7797 37.2229 36.6158 37.221 36.3968V34.4768C37.2255 34.2152 37.1966 34.0314 37.1258 33.9352C37.0564 33.8417 36.9276 33.8012 36.7506 33.8034V33.7009L37.7255 33.6268V34.4426L37.7762 34.3471C37.9203 34.0775 38.084 33.8863 38.2665 33.7719C38.4485 33.6573 38.6768 33.6 38.9517 33.6033C39.3654 33.5969 39.653 33.7424 39.8214 34.0334C39.8834 34.1311 39.9282 34.2482 39.955 34.3859C39.9817 34.5235 39.9955 34.6991 39.9944 34.9133V36.3968C39.992 36.6179 40.0007 36.7828 40.021 36.89C40.042 37.0003 40.0915 37.0776 40.1737 37.1127C40.2419 37.1427 40.4002 37.1585 40.5352 37.162C40.6619 37.1585 40.7595 37.1416 40.8266 37.1112C40.9063 37.0744 40.9548 36.9966 40.9752 36.8869C40.9952 36.7793 41.0039 36.6158 41.0012 36.3968V32.9088C41.0039 32.7087 40.9958 32.5606 40.9768 32.4649C40.9568 32.365 40.9079 32.2967 40.8278 32.2668C40.7583 32.2411 40.6541 32.229 40.5174 32.2284V32.1266L41.5312 32.072C41.5185 32.3088 41.509 32.5504 41.5022 32.7979C41.4957 33.0558 41.4923 33.2811 41.4923 33.474V35.8172L42.609 34.5314C42.767 34.3476 42.8535 34.1931 42.8549 34.0693C42.8627 33.8969 42.6975 33.8191 42.4254 33.8049V33.703H43.877V33.8064C43.7899 33.817 43.7141 33.8339 43.6494 33.857C43.5793 33.8821 43.5073 33.9183 43.4338 33.9651C43.3594 34.0123 43.2966 34.056 43.2462 34.0954C43.1947 34.1358 43.1339 34.1936 43.0642 34.2682C42.9945 34.3429 42.8929 34.4558 42.76 34.6076L42.3915 35.0247L43.3563 36.6201C43.4666 36.8091 43.5679 36.9425 43.661 37.0181C43.7498 37.0908 43.8632 37.1374 43.9997 37.1595V37.2635H43.1171C43.0929 37.2121 43.0594 37.1448 43.0169 37.0623L42.8765 36.7929L42.7689 36.59L42.055 35.3672L41.4937 36.0275L41.4923 36.3968C41.4896 36.6158 41.4982 36.7797 41.5185 36.8869C41.5392 36.9971 41.5883 37.0744 41.6693 37.1112C41.7402 37.1432 41.8454 37.1601 41.9825 37.1627V37.2635H38.9994V37.1627C39.2015 37.1568 39.3404 37.1223 39.3959 37.0444C39.4181 37.0145 39.435 36.9804 39.4471 36.942C39.4587 36.9036 39.4661 36.8537 39.4695 36.7929C39.4735 36.745 39.4776 36.6756 39.4821 36.5848C39.4871 36.4934 39.4895 36.4308 39.49 36.3973V34.9563C39.4914 34.6013 39.4551 34.3382 39.3786 34.171C39.262 33.9079 39.0522 33.7761 38.7544 33.7749C38.4222 33.7739 38.1575 33.9399 37.9613 34.2682C37.8873 34.3923 37.8299 34.5336 37.7883 34.6911C37.7473 34.8486 37.7258 35.0042 37.7255 35.1565V36.3968C37.7229 36.6179 37.7316 36.7828 37.7518 36.89C37.7729 37.0003 37.8223 37.0776 37.9046 37.1127C37.9766 37.1442 38.0833 37.1601 38.2228 37.1627V37.2635H36.7555C36.6256 37.2682 36.3774 37.2751 36.2547 37.2734C36.1257 37.2714 36.0637 37.2572 35.9463 37.2478C35.8421 37.2156 35.7982 37.1873 35.7637 37.1154ZM34.0336 36.3258C34.036 36.5596 34.0901 36.7492 34.198 36.8921C34.3062 37.036 34.4524 37.1101 34.633 37.1132C34.8154 37.1107 34.9882 37.0607 35.1491 36.9641C35.31 36.8669 35.4371 36.7371 35.5288 36.5764C35.5848 36.4739 35.6257 36.3421 35.6512 36.1818C35.6767 36.0232 35.6893 35.8252 35.6893 35.5883V35.2206C35.3624 35.2505 35.1286 35.2831 34.9589 35.3209C34.7878 35.3588 34.6368 35.4129 34.505 35.4843C34.1928 35.6471 34.036 35.9298 34.0336 36.3258Z" fill="black"/>
<path fill-rule="evenodd" clip-rule="evenodd" d="M5.32886 35.1007V36.3778C5.32632 36.5826 5.33757 36.7349 5.36235 36.8342C5.3875 36.9334 5.44141 36.9991 5.52495 37.0311C5.60813 37.0631 5.73639 37.0817 5.90891 37.0847V37.2634H4V37.0847C4.16248 37.0817 4.28277 37.0631 4.36123 37.0311C4.43921 36.9991 4.48962 36.9334 4.51271 36.8342C4.53556 36.7349 4.54608 36.5826 4.54366 36.3778V33.02C4.54583 32.8151 4.5358 32.6628 4.51368 32.5635C4.49143 32.4636 4.44271 32.3976 4.36824 32.3644C4.29353 32.3313 4.1788 32.3119 4.02406 32.3061V32.1275H5.8423C6.45523 32.1248 6.90435 32.2384 7.18941 32.4683C7.4746 32.6985 7.61556 33.0604 7.61218 33.5559C7.61436 34.2514 7.35649 34.7067 6.83894 34.9221C6.70403 34.9772 6.53187 35.0208 6.32285 35.0523C6.11334 35.0838 5.88074 35.1002 5.62481 35.1007H5.32886ZM5.32886 34.9017H5.64319C6.02074 34.9 6.29843 34.8066 6.47675 34.62C6.57358 34.5123 6.64697 34.3705 6.69726 34.1956C6.74706 34.0212 6.77245 33.8216 6.77269 33.5968C6.77076 32.7511 6.41811 32.3277 5.71572 32.3265H5.32886V34.9017Z" fill="black"/>
<path fill-rule="evenodd" clip-rule="evenodd" d="M10.6854 35.3161H8.4646C8.46678 35.5651 8.48068 35.7741 8.50607 35.9428C8.53133 36.111 8.57208 36.2648 8.62793 36.4044C8.81241 36.8563 9.09736 37.0821 9.48301 37.0821C9.70134 37.0806 9.89925 37.0133 10.0771 36.8794C10.2546 36.7455 10.4024 36.5527 10.52 36.3022L10.6773 36.4114C10.5227 36.735 10.3337 36.9724 10.1107 37.1242C9.88764 37.2755 9.61563 37.3507 9.29417 37.349C8.78872 37.3422 8.32364 37.1725 8.03253 36.84C7.74117 36.5074 7.59272 36.0515 7.58691 35.4736C7.59272 34.8911 7.73634 34.4304 8.01766 34.091C8.29874 33.7518 8.74761 33.5784 9.23143 33.571C9.55313 33.5717 9.86382 33.6488 10.0843 33.8022C10.3048 33.9551 10.4674 34.1794 10.5723 34.4746C10.6065 34.5723 10.6326 34.6841 10.6501 34.8109C10.6678 34.9369 10.6796 35.1055 10.6854 35.3161ZM8.47077 35.1181H9.86008C9.85439 34.9068 9.84376 34.7367 9.8278 34.608C9.8122 34.4787 9.78706 34.3637 9.75333 34.2624C9.63582 33.9031 9.45569 33.725 9.21269 33.7281C8.94008 33.7309 8.73685 33.9314 8.60278 34.3306C8.56845 34.4341 8.54113 34.5476 8.52009 34.6705C8.4993 34.7935 8.48274 34.9426 8.47077 35.1181Z" fill="black"/>
<path fill-rule="evenodd" clip-rule="evenodd" d="M10.8279 33.6688L12.0598 33.5795C12.0664 33.7088 12.0713 33.8169 12.0746 33.9047C12.078 33.993 12.0796 34.0701 12.0796 34.1374V34.3439C12.3473 33.8296 12.6705 33.5701 13.0494 33.5659C13.2131 33.5691 13.3462 33.6194 13.4482 33.7161C13.5505 33.8133 13.6032 33.9377 13.6062 34.0892C13.604 34.2152 13.5597 34.3161 13.4736 34.3921C13.3877 34.4677 13.2745 34.5072 13.1346 34.5088C12.9664 34.5145 12.8637 34.4416 12.8266 34.2887C12.8023 34.1941 12.7773 34.1301 12.7512 34.0959C12.7253 34.0617 12.6872 34.046 12.6364 34.0476H12.6235C12.4945 34.0591 12.3723 34.1668 12.2563 34.3717C12.2041 34.4736 12.1648 34.586 12.1386 34.7094C12.1124 34.8328 12.0993 34.9752 12.0993 35.1361V36.4098C12.0966 36.6132 12.1062 36.7629 12.1275 36.8595C12.1486 36.9556 12.197 37.0186 12.2719 37.0487C12.3473 37.078 12.4642 37.0948 12.6235 37.0985V37.2635H10.8018V37.0985C10.9502 37.099 11.0603 37.0839 11.1317 37.0529C11.2035 37.0219 11.2497 36.9572 11.2709 36.8595C11.2925 36.7607 11.3019 36.6111 11.3 36.4098V34.502C11.3058 34.2182 11.2789 34.0339 11.2187 33.9488C11.1585 33.8637 11.0283 33.8253 10.8279 33.8343V33.6688Z" fill="black"/>
<path fill-rule="evenodd" clip-rule="evenodd" d="M15.0693 33.5795L15.076 34.2613C15.3414 33.8024 15.7214 33.5707 16.2163 33.566C16.7194 33.5628 17.0298 33.8034 17.1467 34.2893C17.2888 34.0386 17.4516 33.8553 17.634 33.7392C17.8164 33.6221 18.0297 33.5643 18.2736 33.566C18.6593 33.568 18.9433 33.7015 19.1257 33.9651C19.1968 34.0655 19.2478 34.1873 19.2779 34.3318C19.3084 34.4767 19.3231 34.6643 19.3223 34.895V36.4099C19.32 36.6111 19.3296 36.7607 19.3509 36.8589C19.3722 36.9573 19.4187 37.0219 19.4901 37.0529C19.5619 37.0839 19.6719 37.099 19.8203 37.098V37.2635H18.0443V37.098C18.1863 37.099 18.2918 37.0839 18.3605 37.0529C18.4295 37.0219 18.4743 36.9573 18.4946 36.8589C18.5157 36.7607 18.5248 36.6111 18.5229 36.4099V34.9017C18.5245 34.5399 18.4819 34.2787 18.396 34.1186C18.3098 33.9579 18.1707 33.8795 17.9788 33.8826C17.7483 33.8779 17.5538 34.0041 17.3957 34.2613C17.2593 34.4758 17.1914 34.708 17.1924 34.957V36.4099C17.1904 36.6111 17.1997 36.7607 17.2205 36.8589C17.2416 36.9573 17.2869 37.0219 17.3565 37.0529C17.4264 37.0839 17.5332 37.099 17.6775 37.098V37.2635H15.9212V37.098C16.0631 37.099 16.1686 37.0839 16.2375 37.0529C16.3063 37.0219 16.3511 36.9573 16.3715 36.8589C16.3923 36.7607 16.4018 36.6111 16.3994 36.4099V34.895C16.4028 34.2131 16.2259 33.8758 15.8687 33.8826C15.6465 33.891 15.4601 34.0019 15.3102 34.2147C15.1599 34.428 15.0818 34.6938 15.076 35.012V36.4099C15.0739 36.6132 15.0831 36.7644 15.1039 36.8622C15.1246 36.9603 15.1692 37.0245 15.238 37.0544C15.3069 37.0844 15.4122 37.099 15.5544 37.098V37.2635H13.7783V37.098C13.927 37.099 14.0367 37.0844 14.1085 37.0544C14.1799 37.0245 14.2265 36.9603 14.2477 36.8622C14.2691 36.7644 14.2787 36.6132 14.2763 36.4099V34.4957C14.2833 34.2152 14.2565 34.0339 14.196 33.951C14.1358 33.8675 14.001 33.8292 13.7916 33.8344V33.6689L15.0693 33.5795Z" fill="black"/>
<path fill-rule="evenodd" clip-rule="evenodd" d="M24.4797 33.8949V36.1947C24.4794 36.3443 24.4847 36.4683 24.4953 36.5665C24.5058 36.6647 24.5225 36.7472 24.5452 36.8144C24.5728 36.8912 24.6158 36.9526 24.6736 36.999C24.7317 37.0446 24.796 37.0682 24.866 37.0692C25.0062 37.0672 25.159 36.9956 25.3251 36.856L25.4167 37.0277C25.1535 37.2599 24.8544 37.3745 24.5191 37.3723C24.1574 37.3666 23.9107 37.2399 23.7784 36.9936C23.7525 36.939 23.7323 36.877 23.7179 36.8066C23.7039 36.7368 23.6937 36.6427 23.6882 36.5235C23.6826 36.4047 23.6798 36.2445 23.6801 36.0433V33.8949H23.3066V33.6884C23.4495 33.6826 23.5703 33.6511 23.6696 33.5938C23.7689 33.5361 23.8554 33.4463 23.9294 33.3233C23.9873 33.2298 24.0351 33.1258 24.0725 33.0119C24.1101 32.8978 24.1431 32.756 24.1718 32.5863L24.4995 32.5522C24.4951 32.6431 24.4912 32.7356 24.4884 32.8296C24.4856 32.9231 24.4833 33.036 24.482 33.1677C24.4804 33.2996 24.4797 33.4688 24.4797 33.6742H25.2727V33.8949H24.4797Z" fill="black"/>
<path fill-rule="evenodd" clip-rule="evenodd" d="M23.3029 37.1181V37.2636C23.1113 37.2768 23.0338 37.2768 22.8322 37.2768C22.6723 37.2768 22.5067 37.274 22.3692 37.22C22.2842 37.1864 22.2368 37.1575 22.1734 37.0877C22.1291 37.0136 22.101 37.0093 22.0868 36.804C21.9176 36.9962 21.7415 37.1369 21.5586 37.2279C21.3752 37.3182 21.1779 37.3629 20.9664 37.3619C20.6518 37.3582 20.4058 37.2673 20.2281 37.0882C20.0505 36.909 19.9604 36.6627 19.957 36.3496C19.9559 35.7586 20.3054 35.3914 21.0054 35.2479C21.3212 35.1834 21.6793 35.1398 22.0803 35.1167V34.6692C22.0836 34.3108 22.0474 34.0625 21.9722 33.9243C21.8966 33.786 21.7623 33.72 21.5691 33.7263C21.3638 33.7215 21.2175 33.7998 21.1301 33.9601C21.0984 34.0157 21.0751 34.0787 21.0604 34.1508C21.0459 34.2221 21.0341 34.3214 21.0252 34.449C21.02 34.572 20.9862 34.6591 20.9236 34.7107C20.8611 34.7627 20.7617 34.7878 20.6255 34.7868C20.3218 34.7843 20.169 34.6786 20.1668 34.47C20.1678 34.3482 20.2037 34.2315 20.2743 34.1213C20.3446 34.0104 20.4444 33.9132 20.5732 33.8292C20.846 33.6528 21.2043 33.5655 21.648 33.5677C22.0989 33.5655 22.4222 33.6595 22.6177 33.8502C22.7058 33.9375 22.7705 34.0487 22.8118 34.1838C22.8533 34.3193 22.8736 34.4927 22.8731 34.7044L22.8665 35.3032L22.8601 35.902C22.8547 36.0986 22.8523 36.2224 22.8535 36.2739C22.8511 36.5225 22.8586 36.7036 22.8758 36.8177C22.8931 36.9322 22.9119 36.9826 22.9832 37.0446C23.1084 37.1198 23.2157 37.1176 23.3029 37.1181ZM22.0803 35.8059V35.2759C21.6111 35.3091 21.2783 35.4003 21.0817 35.549C20.8855 35.6982 20.79 35.9304 20.7959 36.2462C20.7978 36.494 20.8462 36.6905 20.941 36.836C21.0354 36.9816 21.1642 37.0556 21.3266 37.0587C21.46 37.0577 21.5831 37.0173 21.6961 36.9374C21.809 36.8581 21.8976 36.7467 21.9623 36.6044C22.0044 36.5173 22.0346 36.4111 22.0534 36.2849C22.0717 36.1589 22.0808 35.9992 22.0803 35.8059Z" fill="black"/>
<path fill-rule="evenodd" clip-rule="evenodd" d="M28.9456 37.1179V37.2633C28.7538 37.2765 28.6765 37.2771 28.4749 37.2771C28.3149 37.2771 28.1496 37.2744 28.0118 37.2203C27.9268 37.1867 27.8795 37.1583 27.8162 37.0874C27.7718 37.0138 27.7435 37.0095 27.7295 36.8042C27.5603 36.9959 27.3842 37.1372 27.2012 37.2281C27.0179 37.318 26.8205 37.3632 26.609 37.3622C26.2944 37.3584 26.0485 37.267 25.8708 37.0884C25.6932 36.9093 25.6031 36.663 25.5996 36.3498C25.5986 35.7589 25.9481 35.3917 26.6481 35.2483C26.9639 35.1837 27.322 35.1401 27.7229 35.117V34.6694C27.7261 34.3112 27.69 34.0627 27.6148 33.924C27.5394 33.7858 27.4049 33.7202 27.2117 33.7266C27.0065 33.7219 26.86 33.8001 26.7726 33.9602C26.741 34.016 26.7176 34.079 26.7031 34.151C26.6886 34.2224 26.6768 34.3216 26.6681 34.4493C26.6628 34.5717 26.6289 34.6589 26.5662 34.711C26.5038 34.7629 26.4044 34.7881 26.268 34.7871C25.9645 34.7845 25.8117 34.679 25.8094 34.4704C25.8103 34.3484 25.8462 34.2318 25.9168 34.1215C25.9872 34.0108 26.0871 33.9134 26.2158 33.83C26.4887 33.653 26.847 33.5658 27.2906 33.5679C27.7415 33.5658 28.0649 33.6598 28.2604 33.8504C28.3485 33.9377 28.4132 34.0491 28.4544 34.184C28.4957 34.3196 28.5163 34.493 28.5157 34.7041L28.5092 35.3035L28.5028 35.9023C28.4974 36.0987 28.495 36.2227 28.4961 36.2741C28.4938 36.5226 28.5013 36.7039 28.5183 36.818C28.5358 36.9324 28.5545 36.983 28.6259 37.0448C28.7509 37.12 28.8584 37.1174 28.9456 37.1179ZM27.7229 35.8063V35.2756C27.2537 35.3093 26.921 35.4006 26.7244 35.5493C26.5277 35.6985 26.4326 35.9306 26.4385 36.2464C26.4405 36.4944 26.4889 36.6908 26.5836 36.8362C26.6781 36.9818 26.8069 37.0559 26.9692 37.0589C27.1027 37.0579 27.2258 37.0175 27.3388 36.9376C27.4516 36.8584 27.5403 36.7469 27.6048 36.6047C27.6471 36.5174 27.6773 36.4113 27.6959 36.2852C27.7144 36.1592 27.7235 35.9995 27.7229 35.8063Z" fill="black"/>
</g>
<defs>
<clipPath id="clip0_1777_15069">
<rect width="39.9997" height="26.3003" fill="white" transform="translate(4 11.072)"/>
</clipPath>
</defs>
</svg>
