<svg width="48" height="49" viewBox="0 0 48 49" fill="none" xmlns="http://www.w3.org/2000/svg">
<g clip-path="url(#clip0_1777_15105)">
<path fill-rule="evenodd" clip-rule="evenodd" d="M5.82962 30.3215C8.20185 30.3215 10.1249 30.5038 10.1249 30.7285C10.1249 30.9533 8.20185 31.1355 5.82962 31.1355C3.45739 31.1355 1.53418 30.9533 1.53418 30.7285C1.53418 30.5038 3.45739 30.3215 5.82962 30.3215Z" fill="#CAC9C9"/>
<path fill-rule="evenodd" clip-rule="evenodd" d="M5.59418 18.2587L13.7261 21.7105C13.9599 21.8099 14.0701 22.0824 13.9709 22.3164L10.5191 30.4482C10.4197 30.6822 10.1472 30.7924 9.91316 30.693L1.78141 27.2412C1.5474 27.142 1.43719 26.8692 1.53659 26.6354L4.98839 18.5035C5.08761 18.2696 5.36034 18.1594 5.59418 18.2587Z" fill="#921D26"/>
<path fill-rule="evenodd" clip-rule="evenodd" d="M13.5233 22.1448C13.5405 22.1875 13.5416 22.2368 13.5224 22.2824L10.1833 30.1489C10.1445 30.2401 10.0383 30.283 9.94715 30.2443L2.08081 26.9051C2.03512 26.8858 2.00164 26.8497 1.98438 26.8069L13.5233 22.1448Z" fill="#70161E"/>
<path fill-rule="evenodd" clip-rule="evenodd" d="M5.6006 18.9744L13.2066 22.203C13.2528 22.2228 13.2746 22.2766 13.2551 22.3227L10.0265 29.9288C10.0068 29.9751 9.95289 29.9969 9.90668 29.9771L2.30068 26.7485C2.25447 26.729 2.23268 26.6751 2.25238 26.6289L5.48098 19.0229C5.50051 18.9767 5.55439 18.9549 5.6006 18.9744Z" fill="#D5232B"/>
<path fill-rule="evenodd" clip-rule="evenodd" d="M13.2557 22.2527C13.2644 22.2745 13.2649 22.2994 13.255 22.3224L10.0266 29.9286C10.0069 29.9748 9.95299 29.9966 9.90678 29.9769L2.30078 26.7483C2.27776 26.7385 2.26067 26.7202 2.25195 26.6984L13.2557 22.2527Z" fill="#A11F24"/>
<path fill-rule="evenodd" clip-rule="evenodd" d="M11.8589 22.48L7.13882 24.8594L6.66992 22.7508L11.8589 22.48Z" fill="white"/>
<path fill-rule="evenodd" clip-rule="evenodd" d="M3.76562 26.5589L8.4855 24.1797L8.9544 26.2883L3.76562 26.5589Z" fill="#E6E6E6"/>
<path fill-rule="evenodd" clip-rule="evenodd" d="M7.13867 24.8589L8.48609 24.1797L8.58548 24.6261L7.13867 24.8589Z" fill="#B3B3B3"/>
<path fill-rule="evenodd" clip-rule="evenodd" d="M18.0009 22.1546V23.5711H17.674C17.674 23.5711 17.1156 23.4894 17.1156 23.7345C17.1156 23.9797 17.3608 24.0614 17.7013 24.3338C18.0418 24.6062 18.573 25.2327 18.573 25.9546C18.573 26.6764 18.0963 27.6026 16.5981 27.6026C15.0999 27.6026 15.2224 27.4392 15.2224 27.4392V25.8456C15.2224 25.8456 15.7264 26.0091 16.1895 26.0091C16.6525 26.0091 16.7343 25.8592 16.7343 25.7094C16.7343 25.5596 15.168 24.607 15.168 23.6536C15.168 23.2757 15.2633 21.9775 16.9658 21.9775C17.6343 21.9906 18.0009 22.1546 18.0009 22.1546Z" fill="#D5232B"/>
<path fill-rule="evenodd" clip-rule="evenodd" d="M19.1191 21.9778H20.8475V27.6028H19.1191V21.9778Z" fill="#D5232B"/>
<path fill-rule="evenodd" clip-rule="evenodd" d="M28.4201 26.1727H30.0395V27.6028H26.8008V21.9778H30.0395V23.4079H28.4201V24.0753H29.8366V25.5054H28.4201V26.1727Z" fill="#D5232B"/>
<path fill-rule="evenodd" clip-rule="evenodd" d="M30.7783 21.9778H32.9147C34.1095 21.9778 35.0871 22.9553 35.0871 24.1502C35.0871 25.3448 34.2123 26.3223 33.0177 26.3223H32.5066V27.6028H30.7783V21.9778ZM32.5066 23.4757V24.8244H32.6023C32.9731 24.8244 33.2765 24.5207 33.2765 24.1502C33.2765 23.779 32.9731 23.4757 32.6023 23.4757H32.5066Z" fill="#D5232B"/>
<path fill-rule="evenodd" clip-rule="evenodd" d="M24.8125 22C25.5571 22 26.2338 22.2891 26.7369 22.7616L25.748 24.0203C25.5233 23.755 25.1876 23.5867 24.8125 23.5867C24.1358 23.5867 23.587 24.1355 23.587 24.8122C23.587 25.4893 24.1358 26.038 24.8125 26.038C25.1876 26.038 25.5233 25.8698 25.748 25.6045L26.7369 26.8632C26.2338 27.3353 25.5571 27.6248 24.8125 27.6248C23.2593 27.6248 22 26.3658 22 24.8122C22 23.259 23.2593 22 24.8125 22Z" fill="#D5232B"/>
<path fill-rule="evenodd" clip-rule="evenodd" d="M37.4066 21.9778L40.3582 27.6028H34.4551L37.4066 21.9778Z" fill="#D5232B"/>
<path fill-rule="evenodd" clip-rule="evenodd" d="M36.6955 27.6028H35.5625L37.452 24.7202L38.8273 26.219L36.6955 27.6028Z" fill="#E6E6E6"/>
<path fill-rule="evenodd" clip-rule="evenodd" d="M36.6729 25.9086L37.4517 24.7202L37.7429 25.0377L36.6729 25.9086Z" fill="#B3B3B3"/>
<path fill-rule="evenodd" clip-rule="evenodd" d="M37.8225 22.7708L38.2257 23.5389L36.6724 25.9085L35.8271 24.9874L36.5606 23.5897L37.8225 22.7708Z" fill="white"/>
<path fill-rule="evenodd" clip-rule="evenodd" d="M40.9651 21.9778H43.722V23.4621H42.6934V27.6028H40.9651V23.4621H39.9365V21.9778H40.9651Z" fill="#D5232B"/>
<path fill-rule="evenodd" clip-rule="evenodd" d="M30.8853 28.8956L30.9259 28.6178H29.3497L29.3074 28.8956H30.8853ZM29.2038 29.5817L29.0117 30.8518H30.6359L30.6768 30.574H29.3715L29.4799 29.853H30.6033L30.6441 29.5817H29.2038ZM32.6982 29.6549L33.8505 28.6178H33.4357L32.0663 29.853L32.2519 28.6178H31.9326L31.5947 30.8518H31.9139L32.0005 30.2709L32.4715 29.8499L33.1999 30.8518H33.5574L32.692 29.6615L32.6982 29.6549ZM34.977 30.8773C35.5323 30.8773 35.9088 30.6157 35.8875 30.1816C35.8546 29.502 34.7199 29.7253 34.6969 29.2563C34.6853 29.0202 34.9109 28.8635 35.2778 28.8635C35.5042 28.8635 35.721 28.9243 35.8926 29.0423L36.0076 28.7807C35.8197 28.6595 35.555 28.5923 35.2806 28.5923C34.7349 28.5923 34.3647 28.8573 34.3857 29.2849C34.4206 29.9997 35.5544 29.7605 35.5771 30.2264C35.589 30.4687 35.353 30.6061 34.9926 30.6061C34.7148 30.6061 34.4325 30.507 34.2557 30.3507L34.1277 30.6061C34.298 30.7593 34.6356 30.8773 34.977 30.8773ZM37.8809 28.6178H37.0512L36.7133 30.8518H37.0325L37.1335 30.1753H37.7302C38.3746 30.1753 38.7608 29.8433 38.733 29.2721C38.7126 28.8573 38.401 28.6178 37.8809 28.6178ZM37.7231 29.8975H37.1775L37.3296 28.8956H37.8656C38.2038 28.8956 38.4021 29.0327 38.4152 29.3008C38.4342 29.6932 38.1794 29.8975 37.7231 29.8975ZM41.4564 29.2721C41.4363 28.8573 41.1244 28.6178 40.6012 28.6178H39.7684L39.4304 30.8518H39.7528L39.8535 30.1688H40.511L40.9335 30.8518H41.2717L40.8276 30.1242C41.2436 30.0156 41.478 29.7157 41.4564 29.2721ZM40.4465 29.8975H39.8944L40.0467 28.8956H40.5859C40.9275 28.8956 41.1256 29.0327 41.1386 29.3008C41.1579 29.6932 40.9028 29.8975 40.4465 29.8975ZM44.0692 28.8956L44.1098 28.6178H42.5332L42.4912 28.8956H44.0692ZM42.3874 29.5817L42.1956 30.8518H43.8198L43.8603 30.574H42.5551L42.6638 29.853H43.7868L43.828 29.5817H42.3874ZM45.4692 30.8773C46.0242 30.8773 46.401 30.6157 46.3798 30.1816C46.3466 29.502 45.2118 29.7253 45.1891 29.2563C45.1775 29.0202 45.4028 28.8635 45.77 28.8635C45.9964 28.8635 46.2132 28.9243 46.3849 29.0423L46.4998 28.7807C46.3119 28.6595 46.0469 28.5923 45.7725 28.5923C45.2269 28.5923 44.8569 28.8573 44.8779 29.2849C44.9125 29.9997 46.0466 29.7605 46.069 30.2264C46.081 30.4687 45.8452 30.6061 45.4845 30.6061C45.207 30.6061 44.9244 30.507 44.7479 30.3507L44.6199 30.6061C44.7899 30.7593 45.1276 30.8773 45.4692 30.8773Z" fill="#999999"/>
</g>
<defs>
<clipPath id="clip0_1777_15105">
<rect width="44.9999" height="12.9132" fill="white" transform="translate(1.5 18.2222)"/>
</clipPath>
</defs>
</svg>
