<svg width="40" height="40" viewBox="0 0 40 40" fill="none" xmlns="http://www.w3.org/2000/svg">
  <path fill-rule="evenodd" clip-rule="evenodd" d="M2.9178 22.6992C3.5452 23.2964 4.38786 23.66 5.30796 23.66C6.22805 23.66 7.07071 23.2964 7.70336 22.6992H8.16669C7.45791 23.5012 6.43937 24 5.30796 24C4.17785 24 3.158 23.5025 2.44922 22.6992H2.9178ZM3.56751 22.6992C3.68433 22.7806 3.81296 22.858 3.9429 22.9224C4.03084 22.841 4.1306 22.7635 4.23035 22.6992H4.6228C4.60574 22.7058 4.58736 22.7163 4.57555 22.7228C4.51124 22.7517 4.45217 22.7872 4.39442 22.8226C4.30648 22.8751 4.2251 22.9394 4.14241 23.0103C4.49942 23.1625 4.89844 23.2452 5.30796 23.2452C5.71747 23.2452 6.11649 23.1639 6.4735 23.0103C6.39212 22.9394 6.30943 22.8751 6.22149 22.8226C6.16243 22.7872 6.10467 22.7517 6.04036 22.7228C6.02855 22.7176 6.01148 22.7058 5.99311 22.6992H6.38556C6.48531 22.7635 6.58507 22.8397 6.67301 22.9224C6.80164 22.8515 6.93027 22.7819 7.0484 22.6992H7.36472C7.1954 22.8344 7.01296 22.9565 6.82001 23.0562C6.7557 23.0917 6.69138 23.1271 6.62707 23.156C6.2228 23.3319 5.77785 23.4316 5.30927 23.4316C4.84069 23.4316 4.39573 23.3319 3.99147 23.156C3.92715 23.1271 3.86284 23.0917 3.79852 23.0562C3.60558 22.9565 3.42313 22.8331 3.25381 22.6992H3.57014H3.56751Z" fill="#FF0000"/>
  <path fill-rule="evenodd" clip-rule="evenodd" d="M2.0328 21.3984C2.2323 21.8959 2.53681 22.3422 2.91745 22.6992H2.44887C2.11549 22.3238 1.85166 21.8854 1.67578 21.3984H2.0328ZM2.4725 21.3984C2.63132 21.7436 2.84789 22.0547 3.1104 22.3185C3.25084 22.161 3.40966 22.014 3.57373 21.8906C3.49235 21.7384 3.42147 21.5743 3.35716 21.3984H3.54485C3.59736 21.5336 3.65642 21.6675 3.72074 21.7856C3.78505 21.7502 3.84412 21.7095 3.90843 21.6741L3.66298 21.3984H4.0725L4.16569 21.5454C4.21294 21.5284 4.25888 21.51 4.3127 21.4864C4.30088 21.4575 4.29563 21.4273 4.28907 21.3984H4.44133C4.44658 21.4103 4.44658 21.4273 4.45314 21.4391C4.50039 21.4273 4.55289 21.4103 4.60015 21.3984H6.0177C6.06495 21.4103 6.11745 21.4273 6.16471 21.4391C6.16996 21.4273 6.16996 21.4103 6.17652 21.3984H6.32877C6.32352 21.4273 6.31696 21.4575 6.30515 21.4864C6.51647 21.5678 6.70941 21.6675 6.89711 21.7856C6.96142 21.6688 7.02049 21.5336 7.07299 21.3984H7.26069C7.19637 21.5743 7.12549 21.7384 7.04412 21.8906C7.20818 22.014 7.36569 22.1597 7.50745 22.3185C7.77127 22.0547 7.98784 21.745 8.14535 21.3984H8.3501C8.17422 21.7961 7.92877 22.1597 7.62951 22.4642C7.58882 22.5049 7.54157 22.5456 7.49432 22.5876C7.45363 22.623 7.41294 22.6637 7.36569 22.6992H7.04937C7.16093 22.623 7.2725 22.5351 7.37094 22.4472C7.24231 22.3002 7.0953 22.1715 6.94305 22.06C6.78423 22.312 6.59785 22.5285 6.38653 22.6979H5.99407C5.93501 22.6742 5.87726 22.6506 5.81819 22.627C5.76569 22.6152 5.71844 22.5981 5.66594 22.5863C5.55437 22.5627 5.4323 22.5509 5.30892 22.5509C5.18554 22.5509 5.06348 22.5627 4.95191 22.5863C4.89941 22.5981 4.85215 22.6152 4.79965 22.627C4.74059 22.6506 4.68284 22.6742 4.62377 22.6979H4.23132C4.02 22.5285 3.83362 22.3107 3.6748 22.06C3.52254 22.1715 3.37553 22.3002 3.2469 22.4472C3.34666 22.5351 3.45823 22.623 3.56848 22.6992H3.25216C3.2049 22.6637 3.16421 22.623 3.12353 22.5876C3.07627 22.5469 3.03033 22.5062 2.98833 22.4642C2.68907 22.1597 2.44362 21.7961 2.26774 21.3984H2.4725ZM8.93944 21.3984C8.76356 21.8841 8.49973 22.3238 8.16635 22.6992H7.70302C8.07841 22.3422 8.38292 21.8972 8.58111 21.3984H8.93813H8.93944ZM3.82049 21.9602C3.98456 22.224 4.1775 22.4406 4.39407 22.6047C4.48727 22.5522 4.58702 22.5115 4.68677 22.476C4.55814 22.2713 4.44658 22.0022 4.35864 21.6911C4.32976 21.7029 4.29957 21.7082 4.27069 21.7266L4.31138 21.7856H4.13025C4.02525 21.8381 3.91893 21.8972 3.81918 21.9615L3.82049 21.9602ZM6.22246 22.6047C6.43903 22.4406 6.63197 22.224 6.79604 21.9602C6.62672 21.8486 6.44428 21.7607 6.25658 21.6911C6.16864 22.0022 6.05708 22.2713 5.92845 22.476C6.0282 22.5115 6.12795 22.5522 6.22115 22.6047H6.22246ZM4.50039 21.6439C4.58833 21.9655 4.6999 22.2358 4.82853 22.434C4.98078 22.3934 5.14485 22.3697 5.30892 22.3697C5.47299 22.3697 5.63706 22.3934 5.78932 22.434C5.91795 22.2345 6.02951 21.9655 6.11745 21.6439C5.86019 21.5625 5.58981 21.5205 5.30892 21.5205C5.02804 21.5205 4.75896 21.5612 4.50039 21.6439Z" fill="#FF0000"/>
  <path fill-rule="evenodd" clip-rule="evenodd" d="M3.55488 19.4492L3.4315 19.6422L4.15209 19.6776C4.15734 19.6015 4.1639 19.5253 4.16915 19.4492H4.32141C4.31616 19.5253 4.31616 19.6015 4.30959 19.6829L5.31107 19.7301L5.58671 19.4492H5.92666L5.59852 19.9467L5.90303 20.4441H5.61033L5.28876 20.1514L4.30434 20.1921C4.31616 20.6318 4.36341 21.0413 4.43954 21.3984H4.28728C4.21115 21.0348 4.1639 20.6305 4.15209 20.1974L3.35537 20.2328L4.0694 21.3984H3.65988L3.53125 21.2579H3.49581C3.51288 21.3052 3.52469 21.3511 3.54306 21.3984H3.35537C3.33831 21.3511 3.32649 21.3052 3.30812 21.2579H3.26087L3.0968 21.0413L3.2438 21.0295C3.23855 20.9888 3.22674 20.9534 3.22018 20.9127L3.16111 20.8536H2.90385L2.71616 20.6135L2.93273 20.5964L2.62165 20.2564C2.46284 20.2564 2.31714 20.2617 2.1767 20.2617L1.989 20.2735L1.77243 20.2801L1.43905 20.3037C1.19885 20.3155 0.982277 20.3273 0.770957 20.3326C0.671203 20.3326 0.431006 20.3496 0.52551 20.1514C0.601638 19.9939 0.78277 19.776 0.953401 19.6947C1.1411 19.6067 1.26973 19.5477 1.45742 19.5424C1.86694 19.5306 2.71616 19.6304 2.71616 19.6304L2.88023 19.4492H3.55357H3.55488ZM6.44249 19.4492C6.4543 19.549 6.45955 19.654 6.45955 19.7603H6.30205C6.30205 19.6553 6.2968 19.549 6.29023 19.4492H6.44249ZM7.45578 19.4492C7.46759 19.549 7.4794 19.654 7.48465 19.7603H7.30352C7.29696 19.6553 7.28646 19.549 7.27465 19.4492H7.45578ZM8.59245 19.4492C8.60426 19.549 8.61607 19.654 8.62789 19.7603H8.44019C8.42838 19.6553 8.41657 19.549 8.3995 19.4492H8.59245ZM9.14372 19.4492C9.15553 19.549 9.16735 19.654 9.1726 19.7603H8.84446C8.83789 19.6553 8.82739 19.549 8.80902 19.4492H9.14241H9.14372ZM1.6753 21.3997C1.58736 21.1477 1.51649 20.8904 1.4758 20.6148H1.80918C1.85644 20.8904 1.93256 21.1542 2.03232 21.3997H1.6753ZM2.26726 21.3997C2.16226 21.1542 2.07957 20.8904 2.03232 20.6148H2.22001C2.27252 20.8904 2.36046 21.1542 2.47202 21.3997H2.26726ZM4.59836 21.3997C4.82674 21.3406 5.06169 21.3117 5.30713 21.3117C5.55258 21.3117 5.78753 21.3406 6.01591 21.3997H4.59836ZM6.17342 21.3997C6.24429 21.0545 6.29023 20.662 6.30205 20.2459H6.45955C6.44774 20.662 6.40049 21.0479 6.32436 21.3997H6.1721H6.17342ZM7.06989 21.3997C7.19852 21.0545 7.28121 20.662 7.30484 20.2459H7.48597C7.46234 20.6555 7.38096 21.0479 7.25758 21.3997H7.06989ZM8.14224 21.3997C8.30631 21.0479 8.41132 20.6555 8.4415 20.2459H8.6292C8.60032 20.6555 8.50057 21.0427 8.34831 21.3997H8.14356H8.14224ZM8.58195 21.3997C8.72895 21.0427 8.81689 20.6502 8.84577 20.2459H9.17391C9.15028 20.6502 9.0689 21.0361 8.94027 21.3997H8.58326H8.58195ZM6.4438 19.9125H10.3736V20.0937H6.4438V19.9125Z" fill="#FF0000"/>
  <path fill-rule="evenodd" clip-rule="evenodd" d="M2.88077 19.4494L2.99759 19.3142L2.77446 19.2971L2.96215 19.0569H3.22597C3.23779 18.9979 3.25485 18.9401 3.26666 18.881L3.16166 18.8758L3.32573 18.6592H3.33754C3.40185 18.4597 3.48455 18.2786 3.57117 18.1145C3.40711 17.9859 3.2496 17.8454 3.10784 17.6866C2.69176 18.1027 2.38725 18.6409 2.25206 19.2446H2.05912C2.3925 17.7103 3.71687 16.5683 5.30374 16.5683C6.95493 16.5683 8.3318 17.8166 8.59037 19.4507H8.39742C8.28586 18.7655 7.96428 18.15 7.50095 17.6879C7.36051 17.8468 7.20169 17.9872 7.03762 18.1158C7.24238 18.4965 7.38938 18.9532 7.4537 19.4507H7.27257C7.2135 18.9874 7.07962 18.5726 6.89193 18.2143C6.70423 18.3377 6.51129 18.4374 6.29997 18.5135C6.37085 18.801 6.41678 19.1107 6.44041 19.4507H6.28815C6.26453 19.1291 6.21728 18.8299 6.15952 18.5608C5.89045 18.6487 5.603 18.696 5.30374 18.696C5.00448 18.696 4.71834 18.6487 4.44796 18.5608C4.38889 18.8299 4.34295 19.1291 4.31933 19.4507H4.16707C4.1907 19.1107 4.23795 18.801 4.30752 18.5135C4.26026 18.4965 4.21432 18.4781 4.17232 18.461L3.55149 19.4507H2.87815L2.88077 19.4494ZM5.58725 19.4494L5.59907 19.4323H5.93245L5.9272 19.4494H5.58725ZM8.80825 19.4494C8.55099 17.6919 7.07962 16.3452 5.30505 16.3452C3.60005 16.3452 2.17724 17.5869 1.83729 19.2446H1.50391C1.84386 17.3939 3.41892 16 5.30505 16C7.26207 16 8.87782 17.4989 9.14164 19.4507H8.80825V19.4494ZM3.67093 17.9386C3.82975 17.6866 4.01613 17.4701 4.22745 17.306C4.1277 17.2351 4.02794 17.1655 3.94 17.0829C3.68799 17.2062 3.45436 17.3703 3.24304 17.5567C3.37167 17.6971 3.51867 17.8258 3.67093 17.9373V17.9386ZM4.39152 17.1826C4.45058 17.218 4.50834 17.2535 4.57265 17.2824C4.64353 17.3178 4.71966 17.3467 4.80103 17.3703C4.84829 17.3874 4.89423 17.3992 4.94804 17.411C5.06486 17.4346 5.18299 17.4517 5.30505 17.4517C5.42843 17.4517 5.54525 17.4346 5.66207 17.411C5.71457 17.3992 5.76182 17.3874 5.80907 17.3703C5.89045 17.3467 5.96789 17.3178 6.03746 17.2824C6.10177 17.2535 6.16084 17.218 6.21859 17.1826C6.30653 17.1235 6.38791 17.0592 6.4706 16.9897C6.11359 16.8427 5.71457 16.7613 5.30505 16.7613C4.89554 16.7613 4.49652 16.8427 4.13951 16.9897C4.22089 17.0605 4.30358 17.1249 4.39152 17.1826ZM4.39152 17.3992C4.17495 17.5632 3.982 17.7798 3.81793 18.0436C3.89406 18.0909 3.96494 18.1316 4.04632 18.1723L4.08176 18.1316H4.38102L4.28783 18.2838L4.3587 18.3127C4.44665 17.9964 4.56346 17.7326 4.69209 17.5278C4.58709 17.4924 4.48733 17.4517 4.39283 17.3992H4.39152ZM3.71818 18.213C3.6473 18.3534 3.58299 18.5004 3.52523 18.6579H3.60136L3.90587 18.3245C3.84156 18.2891 3.78249 18.2537 3.71818 18.213ZM6.79349 18.0436C6.62942 17.7798 6.43647 17.5632 6.2199 17.3992C6.12671 17.4517 6.02696 17.4924 5.92064 17.5278C6.04927 17.7326 6.16609 17.9964 6.25403 18.3127C6.44172 18.2418 6.62286 18.1486 6.79349 18.0436ZM6.38397 17.306C6.59529 17.4701 6.78167 17.6866 6.94049 17.9386C7.09275 17.8271 7.23975 17.6984 7.36838 17.558C7.15706 17.3703 6.92343 17.2062 6.67142 17.0842C6.58348 17.1655 6.48372 17.2364 6.38397 17.3073V17.306ZM4.82597 17.5698C4.69734 17.7628 4.58578 18.0331 4.49783 18.36C4.7551 18.4413 5.02548 18.4833 5.30637 18.4833C5.58725 18.4833 5.85633 18.4427 6.1149 18.36C6.02696 18.0318 5.91539 17.7628 5.78676 17.5698C5.6345 17.6105 5.47044 17.6289 5.30637 17.6289C5.1423 17.6289 4.97823 17.6118 4.82597 17.5698Z" fill="#FF0000"/>
  <path fill-rule="evenodd" clip-rule="evenodd" d="M33.0887 23.2567L33.8907 18.3661H34.799C34.2477 18.2086 33.8737 17.8975 33.8737 17.5339C33.8737 17.0181 34.6415 16.5968 35.5957 16.5968C36.5447 16.5968 37.3125 17.0181 37.3125 17.5339C37.3125 17.8975 36.9371 18.2073 36.3872 18.3661H37.1078L36.2992 23.2567H33.0901H33.0887ZM23.3063 23.2567L24.4666 16.5968H27.6823L26.5168 23.2567H23.3076H23.3063ZM19.177 23.2567L19.979 18.3661H20.8925C20.3426 18.2086 19.9606 17.8975 19.9606 17.5339C19.9606 17.0181 20.7337 16.5968 21.6827 16.5968C22.6317 16.5968 23.4047 17.0181 23.4047 17.5339C23.4047 17.8975 23.0241 18.2073 22.4728 18.3661H23.1934L22.3849 23.2567H19.1744H19.177ZM13.1209 23.2567L13.9819 18.4239H11.9199L12.2481 16.543H19.4408L19.0956 18.4239H17.1977L16.3314 23.2567H13.1209Z" fill="#0632AD"/>
  <path fill-rule="evenodd" clip-rule="evenodd" d="M38.502 17.0719V17.3475H38.6136C38.6845 17.3475 38.737 17.3423 38.7659 17.3187C38.7947 17.295 38.8131 17.2596 38.8131 17.2137C38.8131 17.1664 38.796 17.1323 38.7606 17.1086C38.7317 17.085 38.6792 17.0732 38.6031 17.0732H38.5033L38.502 17.0719ZM38.2684 16.9196H38.6438C38.779 16.9196 38.884 16.9433 38.9549 16.9905C39.0257 17.0378 39.0546 17.1073 39.0546 17.2018C39.0546 17.2662 39.0375 17.3187 39.0021 17.3659C38.9614 17.4066 38.9142 17.442 38.8433 17.4538L39.0599 17.887H38.8026L38.6149 17.4945H38.5033V17.887H38.2697V16.921L38.2684 16.9196ZM38.6254 16.6965C38.5257 16.6965 38.4377 16.7136 38.3498 16.749C38.2684 16.7844 38.191 16.8304 38.1214 16.9013C38.0505 16.9721 37.998 17.0535 37.9573 17.1415C37.9219 17.2294 37.8983 17.3226 37.8983 17.4171C37.8983 17.5169 37.9219 17.6048 37.9573 17.6927C37.9928 17.7807 38.0453 17.8568 38.1096 17.9264C38.1805 17.9972 38.2566 18.0497 38.3498 18.0852C38.4377 18.1259 38.5309 18.1442 38.6254 18.1442C38.7186 18.1442 38.8065 18.1272 38.8945 18.0917C38.9877 18.0511 39.0638 18.0038 39.1399 17.9329C39.2042 17.8686 39.2567 17.7925 39.2922 17.7045C39.3329 17.6166 39.3512 17.5287 39.3512 17.4355C39.3512 17.3305 39.3342 17.236 39.2987 17.148C39.2633 17.0601 39.2108 16.984 39.1465 16.9144C39.0756 16.8435 38.9942 16.7858 38.9063 16.7503C38.8184 16.7149 38.7252 16.6978 38.6254 16.6978V16.6965ZM38.6254 16.5495C38.7422 16.5495 38.8604 16.5731 38.9654 16.6138C39.0704 16.6611 39.1649 16.7254 39.2462 16.8133C39.3276 16.8895 39.3933 16.9826 39.4339 17.089C39.4746 17.194 39.4983 17.3055 39.4983 17.4223C39.4983 17.5392 39.4746 17.6507 39.4274 17.7557C39.3867 17.8607 39.3224 17.9552 39.2397 18.0366C39.1583 18.118 39.0586 18.1771 38.9522 18.2243C38.8472 18.265 38.7357 18.2886 38.6241 18.2886C38.5073 18.2886 38.3957 18.265 38.2907 18.2178C38.1857 18.1771 38.0912 18.1127 38.0033 18.0248C37.9271 17.9434 37.8628 17.8489 37.8221 17.7492C37.7814 17.6442 37.7578 17.5326 37.7578 17.421C37.7578 17.3397 37.7696 17.2622 37.7867 17.1861C37.8103 17.11 37.8392 17.0391 37.8864 16.9695C37.9626 16.8343 38.0676 16.7293 38.1975 16.6584C38.3261 16.5823 38.4666 16.5469 38.6254 16.5469V16.5495Z" fill="#FF0000"/>
  <path fill-rule="evenodd" clip-rule="evenodd" d="M29.7158 16.6914H33.4408L30.2723 19.919L32.333 23.2568H28.4623L26.5 20.041L29.7158 16.6914Z" fill="#FF0000"/>
</svg>
